<mxfile host="app.diagrams.net" modified="2022-11-30T09:51:23.374Z" agent="5.0 (X11)" version="20.6.0" etag="g5urI7tQQUmqaSWr0NoO" type="github">
  <diagram id="qhurbxc-SJSI7t3vX3t4" name="第 1 页">
    <mxGraphModel dx="2250" dy="1322" grid="1" gridSize="10" guides="1" tooltips="1" connect="1" arrows="1" fold="1" page="1" pageScale="1" pageWidth="2000" pageHeight="1000" math="0" shadow="0">
      <root>
        <mxCell id="0" />
        <mxCell id="1" parent="0" />
        <mxCell id="2pKGgdyKarqp1mi2ff9K-1" value="" style="rounded=0;whiteSpace=wrap;html=1;dashed=1;strokeWidth=2;" vertex="1" parent="1">
          <mxGeometry x="380" y="88" width="380" height="825" as="geometry" />
        </mxCell>
        <mxCell id="2pKGgdyKarqp1mi2ff9K-4" value="&lt;font style=&quot;font-size: 24px;&quot;&gt;神经网络剪枝&lt;/font&gt;" style="text;html=1;strokeColor=none;fillColor=none;align=center;verticalAlign=middle;whiteSpace=wrap;rounded=0;dashed=1;strokeWidth=2;" vertex="1" parent="1">
          <mxGeometry x="457.5" y="930" width="185" height="40" as="geometry" />
        </mxCell>
        <mxCell id="2pKGgdyKarqp1mi2ff9K-5" value="&lt;font style=&quot;font-size: 24px;&quot;&gt;神经网络量化&lt;/font&gt;" style="text;html=1;strokeColor=none;fillColor=none;align=center;verticalAlign=middle;whiteSpace=wrap;rounded=0;dashed=1;strokeWidth=2;" vertex="1" parent="1">
          <mxGeometry x="895" y="930" width="185" height="40" as="geometry" />
        </mxCell>
        <mxCell id="2pKGgdyKarqp1mi2ff9K-7" value="&lt;font style=&quot;font-size: 24px;&quot;&gt;模型知识蒸馏&lt;/font&gt;" style="text;html=1;strokeColor=none;fillColor=none;align=center;verticalAlign=middle;whiteSpace=wrap;rounded=0;dashed=1;strokeWidth=2;" vertex="1" parent="1">
          <mxGeometry x="1317.5" y="930" width="185" height="40" as="geometry" />
        </mxCell>
        <mxCell id="2pKGgdyKarqp1mi2ff9K-38" style="edgeStyle=none;rounded=0;orthogonalLoop=1;jettySize=auto;html=1;exitX=1;exitY=0.5;exitDx=0;exitDy=0;entryX=0;entryY=0;entryDx=0;entryDy=0;strokeColor=#67AB9F;strokeWidth=2;fontSize=24;startArrow=none;startFill=0;endArrow=none;endFill=0;" edge="1" parent="1" source="2pKGgdyKarqp1mi2ff9K-8" target="2pKGgdyKarqp1mi2ff9K-16">
          <mxGeometry relative="1" as="geometry" />
        </mxCell>
        <mxCell id="2pKGgdyKarqp1mi2ff9K-47" style="edgeStyle=none;rounded=0;orthogonalLoop=1;jettySize=auto;html=1;exitX=1;exitY=0.5;exitDx=0;exitDy=0;entryX=0;entryY=0;entryDx=0;entryDy=0;strokeColor=#67AB9F;strokeWidth=2;fontSize=24;startArrow=none;startFill=0;endArrow=none;endFill=0;" edge="1" parent="1" source="2pKGgdyKarqp1mi2ff9K-8" target="2pKGgdyKarqp1mi2ff9K-17">
          <mxGeometry relative="1" as="geometry" />
        </mxCell>
        <mxCell id="2pKGgdyKarqp1mi2ff9K-52" style="edgeStyle=none;rounded=0;orthogonalLoop=1;jettySize=auto;html=1;exitX=1;exitY=0.5;exitDx=0;exitDy=0;entryX=0;entryY=0;entryDx=0;entryDy=0;strokeColor=#67AB9F;strokeWidth=2;fontSize=24;startArrow=none;startFill=0;endArrow=none;endFill=0;" edge="1" parent="1" source="2pKGgdyKarqp1mi2ff9K-8" target="2pKGgdyKarqp1mi2ff9K-18">
          <mxGeometry relative="1" as="geometry" />
        </mxCell>
        <mxCell id="2pKGgdyKarqp1mi2ff9K-8" value="" style="ellipse;whiteSpace=wrap;html=1;aspect=fixed;strokeWidth=2;fontSize=24;fillColor=#97D077;strokeColor=none;" vertex="1" parent="1">
          <mxGeometry x="110" y="345" width="30" height="30" as="geometry" />
        </mxCell>
        <mxCell id="2pKGgdyKarqp1mi2ff9K-41" style="edgeStyle=none;rounded=0;orthogonalLoop=1;jettySize=auto;html=1;exitX=1;exitY=0.5;exitDx=0;exitDy=0;entryX=0;entryY=0.5;entryDx=0;entryDy=0;strokeColor=#67AB9F;strokeWidth=2;fontSize=24;startArrow=none;startFill=0;endArrow=none;endFill=0;" edge="1" parent="1" source="2pKGgdyKarqp1mi2ff9K-9" target="2pKGgdyKarqp1mi2ff9K-16">
          <mxGeometry relative="1" as="geometry" />
        </mxCell>
        <mxCell id="2pKGgdyKarqp1mi2ff9K-48" style="edgeStyle=none;rounded=0;orthogonalLoop=1;jettySize=auto;html=1;exitX=1;exitY=0.5;exitDx=0;exitDy=0;entryX=0;entryY=0.5;entryDx=0;entryDy=0;strokeColor=#67AB9F;strokeWidth=2;fontSize=24;startArrow=none;startFill=0;endArrow=none;endFill=0;" edge="1" parent="1" source="2pKGgdyKarqp1mi2ff9K-9" target="2pKGgdyKarqp1mi2ff9K-17">
          <mxGeometry relative="1" as="geometry" />
        </mxCell>
        <mxCell id="2pKGgdyKarqp1mi2ff9K-53" style="edgeStyle=none;rounded=0;orthogonalLoop=1;jettySize=auto;html=1;exitX=1;exitY=0.5;exitDx=0;exitDy=0;entryX=0;entryY=0;entryDx=0;entryDy=0;strokeColor=#67AB9F;strokeWidth=2;fontSize=24;startArrow=none;startFill=0;endArrow=none;endFill=0;" edge="1" parent="1" source="2pKGgdyKarqp1mi2ff9K-9" target="2pKGgdyKarqp1mi2ff9K-18">
          <mxGeometry relative="1" as="geometry" />
        </mxCell>
        <mxCell id="2pKGgdyKarqp1mi2ff9K-58" style="edgeStyle=none;rounded=0;orthogonalLoop=1;jettySize=auto;html=1;exitX=1;exitY=0.5;exitDx=0;exitDy=0;entryX=0;entryY=0;entryDx=0;entryDy=0;strokeColor=#67AB9F;strokeWidth=2;fontSize=24;startArrow=none;startFill=0;endArrow=none;endFill=0;" edge="1" parent="1" source="2pKGgdyKarqp1mi2ff9K-9" target="2pKGgdyKarqp1mi2ff9K-19">
          <mxGeometry relative="1" as="geometry" />
        </mxCell>
        <mxCell id="2pKGgdyKarqp1mi2ff9K-9" value="" style="ellipse;whiteSpace=wrap;html=1;aspect=fixed;strokeWidth=2;fontSize=24;fillColor=#97D077;strokeColor=none;" vertex="1" parent="1">
          <mxGeometry x="110" y="415" width="30" height="30" as="geometry" />
        </mxCell>
        <mxCell id="2pKGgdyKarqp1mi2ff9K-42" style="edgeStyle=none;rounded=0;orthogonalLoop=1;jettySize=auto;html=1;exitX=1;exitY=0.5;exitDx=0;exitDy=0;entryX=0;entryY=1;entryDx=0;entryDy=0;strokeColor=#67AB9F;strokeWidth=2;fontSize=24;startArrow=none;startFill=0;endArrow=none;endFill=0;" edge="1" parent="1" source="2pKGgdyKarqp1mi2ff9K-10" target="2pKGgdyKarqp1mi2ff9K-16">
          <mxGeometry relative="1" as="geometry" />
        </mxCell>
        <mxCell id="2pKGgdyKarqp1mi2ff9K-49" style="edgeStyle=none;rounded=0;orthogonalLoop=1;jettySize=auto;html=1;exitX=1;exitY=0.5;exitDx=0;exitDy=0;entryX=0;entryY=0.5;entryDx=0;entryDy=0;strokeColor=#67AB9F;strokeWidth=2;fontSize=24;startArrow=none;startFill=0;endArrow=none;endFill=0;" edge="1" parent="1" source="2pKGgdyKarqp1mi2ff9K-10" target="2pKGgdyKarqp1mi2ff9K-17">
          <mxGeometry relative="1" as="geometry" />
        </mxCell>
        <mxCell id="2pKGgdyKarqp1mi2ff9K-54" style="edgeStyle=none;rounded=0;orthogonalLoop=1;jettySize=auto;html=1;exitX=1;exitY=0.5;exitDx=0;exitDy=0;entryX=0;entryY=0.5;entryDx=0;entryDy=0;strokeColor=#67AB9F;strokeWidth=2;fontSize=24;startArrow=none;startFill=0;endArrow=none;endFill=0;" edge="1" parent="1" source="2pKGgdyKarqp1mi2ff9K-10" target="2pKGgdyKarqp1mi2ff9K-18">
          <mxGeometry relative="1" as="geometry" />
        </mxCell>
        <mxCell id="2pKGgdyKarqp1mi2ff9K-59" style="edgeStyle=none;rounded=0;orthogonalLoop=1;jettySize=auto;html=1;exitX=1;exitY=0.5;exitDx=0;exitDy=0;entryX=0;entryY=0;entryDx=0;entryDy=0;strokeColor=#67AB9F;strokeWidth=2;fontSize=24;startArrow=none;startFill=0;endArrow=none;endFill=0;" edge="1" parent="1" source="2pKGgdyKarqp1mi2ff9K-10" target="2pKGgdyKarqp1mi2ff9K-19">
          <mxGeometry relative="1" as="geometry" />
        </mxCell>
        <mxCell id="2pKGgdyKarqp1mi2ff9K-10" value="" style="ellipse;whiteSpace=wrap;html=1;aspect=fixed;strokeWidth=2;fontSize=24;fillColor=#97D077;strokeColor=none;" vertex="1" parent="1">
          <mxGeometry x="110" y="485" width="30" height="30" as="geometry" />
        </mxCell>
        <mxCell id="2pKGgdyKarqp1mi2ff9K-11" value="" style="ellipse;whiteSpace=wrap;html=1;aspect=fixed;strokeWidth=2;fontSize=24;fillColor=#97D077;strokeColor=none;" vertex="1" parent="1">
          <mxGeometry x="110" y="555" width="30" height="30" as="geometry" />
        </mxCell>
        <mxCell id="2pKGgdyKarqp1mi2ff9K-51" style="edgeStyle=none;rounded=0;orthogonalLoop=1;jettySize=auto;html=1;exitX=1;exitY=0.5;exitDx=0;exitDy=0;entryX=0;entryY=1;entryDx=0;entryDy=0;strokeColor=#67AB9F;strokeWidth=2;fontSize=24;startArrow=none;startFill=0;endArrow=none;endFill=0;" edge="1" parent="1" source="2pKGgdyKarqp1mi2ff9K-12" target="2pKGgdyKarqp1mi2ff9K-17">
          <mxGeometry relative="1" as="geometry" />
        </mxCell>
        <mxCell id="2pKGgdyKarqp1mi2ff9K-61" style="edgeStyle=none;rounded=0;orthogonalLoop=1;jettySize=auto;html=1;exitX=1;exitY=0.5;exitDx=0;exitDy=0;entryX=0;entryY=1;entryDx=0;entryDy=0;strokeColor=#67AB9F;strokeWidth=2;fontSize=24;startArrow=none;startFill=0;endArrow=none;endFill=0;" edge="1" parent="1" source="2pKGgdyKarqp1mi2ff9K-12" target="2pKGgdyKarqp1mi2ff9K-19">
          <mxGeometry relative="1" as="geometry" />
        </mxCell>
        <mxCell id="2pKGgdyKarqp1mi2ff9K-12" value="" style="ellipse;whiteSpace=wrap;html=1;aspect=fixed;strokeWidth=2;fontSize=24;fillColor=#97D077;strokeColor=none;" vertex="1" parent="1">
          <mxGeometry x="110" y="625" width="30" height="30" as="geometry" />
        </mxCell>
        <mxCell id="2pKGgdyKarqp1mi2ff9K-45" style="edgeStyle=none;rounded=0;orthogonalLoop=1;jettySize=auto;html=1;exitX=0;exitY=1;exitDx=0;exitDy=0;entryX=1;entryY=0.5;entryDx=0;entryDy=0;strokeColor=#67AB9F;strokeWidth=2;fontSize=24;startArrow=none;startFill=0;endArrow=none;endFill=0;" edge="1" parent="1" source="2pKGgdyKarqp1mi2ff9K-16" target="2pKGgdyKarqp1mi2ff9K-11">
          <mxGeometry relative="1" as="geometry" />
        </mxCell>
        <mxCell id="2pKGgdyKarqp1mi2ff9K-46" style="edgeStyle=none;rounded=0;orthogonalLoop=1;jettySize=auto;html=1;exitX=0;exitY=1;exitDx=0;exitDy=0;entryX=1;entryY=0.5;entryDx=0;entryDy=0;strokeColor=#67AB9F;strokeWidth=2;fontSize=24;startArrow=none;startFill=0;endArrow=none;endFill=0;" edge="1" parent="1" source="2pKGgdyKarqp1mi2ff9K-16" target="2pKGgdyKarqp1mi2ff9K-12">
          <mxGeometry relative="1" as="geometry" />
        </mxCell>
        <mxCell id="2pKGgdyKarqp1mi2ff9K-62" style="edgeStyle=none;rounded=0;orthogonalLoop=1;jettySize=auto;html=1;exitX=1;exitY=0.5;exitDx=0;exitDy=0;strokeColor=#67AB9F;strokeWidth=2;fontSize=24;startArrow=none;startFill=0;endArrow=none;endFill=0;" edge="1" parent="1" source="2pKGgdyKarqp1mi2ff9K-16" target="2pKGgdyKarqp1mi2ff9K-23">
          <mxGeometry relative="1" as="geometry" />
        </mxCell>
        <mxCell id="2pKGgdyKarqp1mi2ff9K-68" style="edgeStyle=none;rounded=0;orthogonalLoop=1;jettySize=auto;html=1;exitX=1;exitY=0.5;exitDx=0;exitDy=0;strokeColor=#67AB9F;strokeWidth=2;fontSize=24;startArrow=none;startFill=0;endArrow=none;endFill=0;entryX=0;entryY=0;entryDx=0;entryDy=0;" edge="1" parent="1" source="2pKGgdyKarqp1mi2ff9K-16" target="2pKGgdyKarqp1mi2ff9K-24">
          <mxGeometry relative="1" as="geometry">
            <mxPoint x="290" y="525" as="targetPoint" />
          </mxGeometry>
        </mxCell>
        <mxCell id="2pKGgdyKarqp1mi2ff9K-16" value="" style="ellipse;whiteSpace=wrap;html=1;aspect=fixed;strokeWidth=2;fontSize=24;fillColor=#97D077;strokeColor=none;" vertex="1" parent="1">
          <mxGeometry x="200" y="390" width="30" height="30" as="geometry" />
        </mxCell>
        <mxCell id="2pKGgdyKarqp1mi2ff9K-50" style="edgeStyle=none;rounded=0;orthogonalLoop=1;jettySize=auto;html=1;exitX=0;exitY=1;exitDx=0;exitDy=0;entryX=1;entryY=0.5;entryDx=0;entryDy=0;strokeColor=#67AB9F;strokeWidth=2;fontSize=24;startArrow=none;startFill=0;endArrow=none;endFill=0;" edge="1" parent="1" source="2pKGgdyKarqp1mi2ff9K-17" target="2pKGgdyKarqp1mi2ff9K-11">
          <mxGeometry relative="1" as="geometry" />
        </mxCell>
        <mxCell id="2pKGgdyKarqp1mi2ff9K-63" style="edgeStyle=none;rounded=0;orthogonalLoop=1;jettySize=auto;html=1;exitX=1;exitY=0.5;exitDx=0;exitDy=0;entryX=0;entryY=0.5;entryDx=0;entryDy=0;strokeColor=#67AB9F;strokeWidth=2;fontSize=24;startArrow=none;startFill=0;endArrow=none;endFill=0;" edge="1" parent="1" source="2pKGgdyKarqp1mi2ff9K-17" target="2pKGgdyKarqp1mi2ff9K-23">
          <mxGeometry relative="1" as="geometry" />
        </mxCell>
        <mxCell id="2pKGgdyKarqp1mi2ff9K-70" style="edgeStyle=none;rounded=0;orthogonalLoop=1;jettySize=auto;html=1;exitX=1;exitY=0.5;exitDx=0;exitDy=0;strokeColor=#67AB9F;strokeWidth=2;fontSize=24;startArrow=none;startFill=0;endArrow=none;endFill=0;entryX=0;entryY=0;entryDx=0;entryDy=0;" edge="1" parent="1" source="2pKGgdyKarqp1mi2ff9K-17" target="2pKGgdyKarqp1mi2ff9K-24">
          <mxGeometry relative="1" as="geometry" />
        </mxCell>
        <mxCell id="2pKGgdyKarqp1mi2ff9K-17" value="" style="ellipse;whiteSpace=wrap;html=1;aspect=fixed;strokeWidth=2;fontSize=24;fillColor=#97D077;strokeColor=none;" vertex="1" parent="1">
          <mxGeometry x="200" y="450" width="30" height="30" as="geometry" />
        </mxCell>
        <mxCell id="2pKGgdyKarqp1mi2ff9K-55" style="edgeStyle=none;rounded=0;orthogonalLoop=1;jettySize=auto;html=1;exitX=0;exitY=1;exitDx=0;exitDy=0;entryX=1;entryY=0.5;entryDx=0;entryDy=0;strokeColor=#67AB9F;strokeWidth=2;fontSize=24;startArrow=none;startFill=0;endArrow=none;endFill=0;" edge="1" parent="1" source="2pKGgdyKarqp1mi2ff9K-18" target="2pKGgdyKarqp1mi2ff9K-11">
          <mxGeometry relative="1" as="geometry" />
        </mxCell>
        <mxCell id="2pKGgdyKarqp1mi2ff9K-56" style="edgeStyle=none;rounded=0;orthogonalLoop=1;jettySize=auto;html=1;exitX=0;exitY=1;exitDx=0;exitDy=0;entryX=1;entryY=0.5;entryDx=0;entryDy=0;strokeColor=#67AB9F;strokeWidth=2;fontSize=24;startArrow=none;startFill=0;endArrow=none;endFill=0;" edge="1" parent="1" source="2pKGgdyKarqp1mi2ff9K-18" target="2pKGgdyKarqp1mi2ff9K-12">
          <mxGeometry relative="1" as="geometry" />
        </mxCell>
        <mxCell id="2pKGgdyKarqp1mi2ff9K-66" style="edgeStyle=none;rounded=0;orthogonalLoop=1;jettySize=auto;html=1;exitX=1;exitY=0.5;exitDx=0;exitDy=0;entryX=0;entryY=1;entryDx=0;entryDy=0;strokeColor=#67AB9F;strokeWidth=2;fontSize=24;startArrow=none;startFill=0;endArrow=none;endFill=0;" edge="1" parent="1" source="2pKGgdyKarqp1mi2ff9K-18" target="2pKGgdyKarqp1mi2ff9K-23">
          <mxGeometry relative="1" as="geometry" />
        </mxCell>
        <mxCell id="2pKGgdyKarqp1mi2ff9K-18" value="" style="ellipse;whiteSpace=wrap;html=1;aspect=fixed;strokeWidth=2;fontSize=24;fillColor=#97D077;strokeColor=none;" vertex="1" parent="1">
          <mxGeometry x="200" y="510" width="30" height="30" as="geometry" />
        </mxCell>
        <mxCell id="2pKGgdyKarqp1mi2ff9K-57" style="edgeStyle=none;rounded=0;orthogonalLoop=1;jettySize=auto;html=1;exitX=0;exitY=0;exitDx=0;exitDy=0;entryX=1;entryY=0.5;entryDx=0;entryDy=0;strokeColor=#67AB9F;strokeWidth=2;fontSize=24;startArrow=none;startFill=0;endArrow=none;endFill=0;" edge="1" parent="1" source="2pKGgdyKarqp1mi2ff9K-19" target="2pKGgdyKarqp1mi2ff9K-8">
          <mxGeometry relative="1" as="geometry" />
        </mxCell>
        <mxCell id="2pKGgdyKarqp1mi2ff9K-60" style="edgeStyle=none;rounded=0;orthogonalLoop=1;jettySize=auto;html=1;exitX=0;exitY=0.5;exitDx=0;exitDy=0;entryX=1;entryY=0.5;entryDx=0;entryDy=0;strokeColor=#67AB9F;strokeWidth=2;fontSize=24;startArrow=none;startFill=0;endArrow=none;endFill=0;" edge="1" parent="1" source="2pKGgdyKarqp1mi2ff9K-19" target="2pKGgdyKarqp1mi2ff9K-11">
          <mxGeometry relative="1" as="geometry" />
        </mxCell>
        <mxCell id="2pKGgdyKarqp1mi2ff9K-67" style="edgeStyle=none;rounded=0;orthogonalLoop=1;jettySize=auto;html=1;exitX=1;exitY=0.5;exitDx=0;exitDy=0;entryX=0;entryY=1;entryDx=0;entryDy=0;strokeColor=#67AB9F;strokeWidth=2;fontSize=24;startArrow=none;startFill=0;endArrow=none;endFill=0;" edge="1" parent="1" source="2pKGgdyKarqp1mi2ff9K-19" target="2pKGgdyKarqp1mi2ff9K-23">
          <mxGeometry relative="1" as="geometry" />
        </mxCell>
        <mxCell id="2pKGgdyKarqp1mi2ff9K-72" style="edgeStyle=none;rounded=0;orthogonalLoop=1;jettySize=auto;html=1;exitX=1;exitY=0.5;exitDx=0;exitDy=0;entryX=0;entryY=1;entryDx=0;entryDy=0;strokeColor=#67AB9F;strokeWidth=2;fontSize=24;startArrow=none;startFill=0;endArrow=none;endFill=0;" edge="1" parent="1" source="2pKGgdyKarqp1mi2ff9K-19" target="2pKGgdyKarqp1mi2ff9K-24">
          <mxGeometry relative="1" as="geometry" />
        </mxCell>
        <mxCell id="2pKGgdyKarqp1mi2ff9K-19" value="" style="ellipse;whiteSpace=wrap;html=1;aspect=fixed;strokeWidth=2;fontSize=24;fillColor=#97D077;strokeColor=none;" vertex="1" parent="1">
          <mxGeometry x="200" y="570" width="30" height="30" as="geometry" />
        </mxCell>
        <mxCell id="2pKGgdyKarqp1mi2ff9K-23" value="" style="ellipse;whiteSpace=wrap;html=1;aspect=fixed;strokeWidth=2;fontSize=24;fillColor=#97D077;strokeColor=none;" vertex="1" parent="1">
          <mxGeometry x="270" y="425" width="30" height="30" as="geometry" />
        </mxCell>
        <mxCell id="2pKGgdyKarqp1mi2ff9K-71" style="edgeStyle=none;rounded=0;orthogonalLoop=1;jettySize=auto;html=1;exitX=0;exitY=0.5;exitDx=0;exitDy=0;entryX=1;entryY=0.5;entryDx=0;entryDy=0;strokeColor=#67AB9F;strokeWidth=2;fontSize=24;startArrow=none;startFill=0;endArrow=none;endFill=0;" edge="1" parent="1" source="2pKGgdyKarqp1mi2ff9K-24" target="2pKGgdyKarqp1mi2ff9K-18">
          <mxGeometry relative="1" as="geometry" />
        </mxCell>
        <mxCell id="2pKGgdyKarqp1mi2ff9K-24" value="" style="ellipse;whiteSpace=wrap;html=1;aspect=fixed;strokeWidth=2;fontSize=24;fillColor=#97D077;strokeColor=none;" vertex="1" parent="1">
          <mxGeometry x="270" y="540" width="30" height="30" as="geometry" />
        </mxCell>
        <mxCell id="2pKGgdyKarqp1mi2ff9K-73" style="edgeStyle=none;rounded=0;orthogonalLoop=1;jettySize=auto;html=1;exitX=1;exitY=0.5;exitDx=0;exitDy=0;entryX=0;entryY=0;entryDx=0;entryDy=0;strokeColor=#B5739D;strokeWidth=2;fontSize=24;startArrow=none;startFill=0;endArrow=none;endFill=0;dashed=1;" edge="1" parent="1" source="2pKGgdyKarqp1mi2ff9K-76" target="2pKGgdyKarqp1mi2ff9K-95">
          <mxGeometry relative="1" as="geometry" />
        </mxCell>
        <mxCell id="2pKGgdyKarqp1mi2ff9K-75" style="edgeStyle=none;rounded=0;orthogonalLoop=1;jettySize=auto;html=1;exitX=1;exitY=0.5;exitDx=0;exitDy=0;entryX=0;entryY=0;entryDx=0;entryDy=0;strokeColor=#B5739D;strokeWidth=2;fontSize=24;startArrow=none;startFill=0;endArrow=none;endFill=0;dashed=1;" edge="1" parent="1" source="2pKGgdyKarqp1mi2ff9K-76" target="2pKGgdyKarqp1mi2ff9K-103">
          <mxGeometry relative="1" as="geometry" />
        </mxCell>
        <mxCell id="2pKGgdyKarqp1mi2ff9K-76" value="" style="ellipse;whiteSpace=wrap;html=1;aspect=fixed;strokeWidth=2;fontSize=24;fillColor=#F19C99;strokeColor=none;dashed=1;" vertex="1" parent="1">
          <mxGeometry x="1710" y="345.5" width="30" height="30" as="geometry" />
        </mxCell>
        <mxCell id="2pKGgdyKarqp1mi2ff9K-77" style="edgeStyle=none;rounded=0;orthogonalLoop=1;jettySize=auto;html=1;exitX=1;exitY=0.5;exitDx=0;exitDy=0;entryX=0;entryY=0.5;entryDx=0;entryDy=0;strokeColor=#B5739D;strokeWidth=2;fontSize=24;startArrow=none;startFill=0;endArrow=none;endFill=0;dashed=1;" edge="1" parent="1" source="2pKGgdyKarqp1mi2ff9K-81" target="2pKGgdyKarqp1mi2ff9K-95">
          <mxGeometry relative="1" as="geometry" />
        </mxCell>
        <mxCell id="2pKGgdyKarqp1mi2ff9K-81" value="" style="ellipse;whiteSpace=wrap;html=1;aspect=fixed;strokeWidth=2;fontSize=24;fillColor=#F19C99;strokeColor=none;dashed=1;" vertex="1" parent="1">
          <mxGeometry x="1710" y="415.5" width="30" height="30" as="geometry" />
        </mxCell>
        <mxCell id="2pKGgdyKarqp1mi2ff9K-83" style="edgeStyle=none;rounded=0;orthogonalLoop=1;jettySize=auto;html=1;exitX=1;exitY=0.5;exitDx=0;exitDy=0;entryX=0;entryY=0.5;entryDx=0;entryDy=0;strokeColor=#B5739D;strokeWidth=2;fontSize=24;startArrow=none;startFill=0;endArrow=none;endFill=0;dashed=1;" edge="1" parent="1" source="2pKGgdyKarqp1mi2ff9K-86" target="2pKGgdyKarqp1mi2ff9K-99">
          <mxGeometry relative="1" as="geometry" />
        </mxCell>
        <mxCell id="2pKGgdyKarqp1mi2ff9K-84" style="edgeStyle=none;rounded=0;orthogonalLoop=1;jettySize=auto;html=1;exitX=1;exitY=0.5;exitDx=0;exitDy=0;entryX=0;entryY=0.5;entryDx=0;entryDy=0;strokeColor=#B5739D;strokeWidth=2;fontSize=24;startArrow=none;startFill=0;endArrow=none;endFill=0;dashed=1;" edge="1" parent="1" source="2pKGgdyKarqp1mi2ff9K-86" target="2pKGgdyKarqp1mi2ff9K-103">
          <mxGeometry relative="1" as="geometry" />
        </mxCell>
        <mxCell id="2pKGgdyKarqp1mi2ff9K-86" value="" style="ellipse;whiteSpace=wrap;html=1;aspect=fixed;strokeWidth=2;fontSize=24;fillColor=#F19C99;strokeColor=none;dashed=1;" vertex="1" parent="1">
          <mxGeometry x="1710" y="485.5" width="30" height="30" as="geometry" />
        </mxCell>
        <mxCell id="2pKGgdyKarqp1mi2ff9K-87" value="" style="ellipse;whiteSpace=wrap;html=1;aspect=fixed;strokeWidth=2;fontSize=24;fillColor=#F19C99;strokeColor=none;dashed=1;" vertex="1" parent="1">
          <mxGeometry x="1710" y="555.5" width="30" height="30" as="geometry" />
        </mxCell>
        <mxCell id="2pKGgdyKarqp1mi2ff9K-112" style="edgeStyle=none;rounded=0;orthogonalLoop=1;jettySize=auto;html=1;exitX=1;exitY=0.5;exitDx=0;exitDy=0;entryX=0;entryY=1;entryDx=0;entryDy=0;dashed=1;strokeColor=#B5739D;strokeWidth=2;fontSize=24;startArrow=none;startFill=0;endArrow=none;endFill=0;" edge="1" parent="1" source="2pKGgdyKarqp1mi2ff9K-90" target="2pKGgdyKarqp1mi2ff9K-108">
          <mxGeometry relative="1" as="geometry" />
        </mxCell>
        <mxCell id="2pKGgdyKarqp1mi2ff9K-90" value="" style="ellipse;whiteSpace=wrap;html=1;aspect=fixed;strokeWidth=2;fontSize=24;fillColor=#F19C99;strokeColor=none;dashed=1;" vertex="1" parent="1">
          <mxGeometry x="1710" y="625.5" width="30" height="30" as="geometry" />
        </mxCell>
        <mxCell id="2pKGgdyKarqp1mi2ff9K-92" style="edgeStyle=none;rounded=0;orthogonalLoop=1;jettySize=auto;html=1;exitX=0;exitY=1;exitDx=0;exitDy=0;entryX=1;entryY=0.5;entryDx=0;entryDy=0;strokeColor=#B5739D;strokeWidth=2;fontSize=24;startArrow=none;startFill=0;endArrow=none;endFill=0;dashed=1;" edge="1" parent="1" source="2pKGgdyKarqp1mi2ff9K-103" target="2pKGgdyKarqp1mi2ff9K-90">
          <mxGeometry relative="1" as="geometry" />
        </mxCell>
        <mxCell id="2pKGgdyKarqp1mi2ff9K-93" style="edgeStyle=none;rounded=0;orthogonalLoop=1;jettySize=auto;html=1;exitX=1;exitY=0.5;exitDx=0;exitDy=0;strokeColor=#B5739D;strokeWidth=2;fontSize=24;startArrow=none;startFill=0;endArrow=none;endFill=0;dashed=1;" edge="1" parent="1" source="2pKGgdyKarqp1mi2ff9K-95" target="2pKGgdyKarqp1mi2ff9K-109">
          <mxGeometry relative="1" as="geometry" />
        </mxCell>
        <mxCell id="2pKGgdyKarqp1mi2ff9K-95" value="" style="ellipse;whiteSpace=wrap;html=1;aspect=fixed;strokeWidth=2;fontSize=24;fillColor=#F19C99;strokeColor=none;dashed=1;" vertex="1" parent="1">
          <mxGeometry x="1800" y="390.5" width="30" height="30" as="geometry" />
        </mxCell>
        <mxCell id="2pKGgdyKarqp1mi2ff9K-97" style="edgeStyle=none;rounded=0;orthogonalLoop=1;jettySize=auto;html=1;exitX=1;exitY=0.5;exitDx=0;exitDy=0;entryX=0;entryY=0.5;entryDx=0;entryDy=0;strokeColor=#B5739D;strokeWidth=2;fontSize=24;startArrow=none;startFill=0;endArrow=none;endFill=0;dashed=1;" edge="1" parent="1" source="2pKGgdyKarqp1mi2ff9K-99" target="2pKGgdyKarqp1mi2ff9K-109">
          <mxGeometry relative="1" as="geometry" />
        </mxCell>
        <mxCell id="2pKGgdyKarqp1mi2ff9K-99" value="" style="ellipse;whiteSpace=wrap;html=1;aspect=fixed;strokeWidth=2;fontSize=24;fillColor=#F19C99;strokeColor=none;dashed=1;" vertex="1" parent="1">
          <mxGeometry x="1800" y="450.5" width="30" height="30" as="geometry" />
        </mxCell>
        <mxCell id="2pKGgdyKarqp1mi2ff9K-103" value="" style="ellipse;whiteSpace=wrap;html=1;aspect=fixed;strokeWidth=2;fontSize=24;fillColor=#F19C99;strokeColor=none;dashed=1;" vertex="1" parent="1">
          <mxGeometry x="1800" y="510.5" width="30" height="30" as="geometry" />
        </mxCell>
        <mxCell id="2pKGgdyKarqp1mi2ff9K-105" style="edgeStyle=none;rounded=0;orthogonalLoop=1;jettySize=auto;html=1;exitX=0;exitY=0.5;exitDx=0;exitDy=0;entryX=1;entryY=0.5;entryDx=0;entryDy=0;strokeColor=#B5739D;strokeWidth=2;fontSize=24;startArrow=none;startFill=0;endArrow=none;endFill=0;dashed=1;" edge="1" parent="1" source="2pKGgdyKarqp1mi2ff9K-108" target="2pKGgdyKarqp1mi2ff9K-87">
          <mxGeometry relative="1" as="geometry" />
        </mxCell>
        <mxCell id="2pKGgdyKarqp1mi2ff9K-106" style="edgeStyle=none;rounded=0;orthogonalLoop=1;jettySize=auto;html=1;exitX=1;exitY=0.5;exitDx=0;exitDy=0;entryX=0;entryY=1;entryDx=0;entryDy=0;strokeColor=#B5739D;strokeWidth=2;fontSize=24;startArrow=none;startFill=0;endArrow=none;endFill=0;dashed=1;" edge="1" parent="1" source="2pKGgdyKarqp1mi2ff9K-108" target="2pKGgdyKarqp1mi2ff9K-109">
          <mxGeometry relative="1" as="geometry" />
        </mxCell>
        <mxCell id="2pKGgdyKarqp1mi2ff9K-107" style="edgeStyle=none;rounded=0;orthogonalLoop=1;jettySize=auto;html=1;exitX=1;exitY=0.5;exitDx=0;exitDy=0;entryX=0;entryY=1;entryDx=0;entryDy=0;strokeColor=#B5739D;strokeWidth=2;fontSize=24;startArrow=none;startFill=0;endArrow=none;endFill=0;dashed=1;" edge="1" parent="1" source="2pKGgdyKarqp1mi2ff9K-108" target="2pKGgdyKarqp1mi2ff9K-111">
          <mxGeometry relative="1" as="geometry" />
        </mxCell>
        <mxCell id="2pKGgdyKarqp1mi2ff9K-108" value="" style="ellipse;whiteSpace=wrap;html=1;aspect=fixed;strokeWidth=2;fontSize=24;fillColor=#F19C99;strokeColor=none;dashed=1;" vertex="1" parent="1">
          <mxGeometry x="1800" y="570.5" width="30" height="30" as="geometry" />
        </mxCell>
        <mxCell id="2pKGgdyKarqp1mi2ff9K-109" value="" style="ellipse;whiteSpace=wrap;html=1;aspect=fixed;strokeWidth=2;fontSize=24;fillColor=#F19C99;strokeColor=none;dashed=1;" vertex="1" parent="1">
          <mxGeometry x="1870" y="425.5" width="30" height="30" as="geometry" />
        </mxCell>
        <mxCell id="2pKGgdyKarqp1mi2ff9K-110" style="edgeStyle=none;rounded=0;orthogonalLoop=1;jettySize=auto;html=1;exitX=0;exitY=0.5;exitDx=0;exitDy=0;entryX=1;entryY=0.5;entryDx=0;entryDy=0;strokeColor=#B5739D;strokeWidth=2;fontSize=24;startArrow=none;startFill=0;endArrow=none;endFill=0;dashed=1;" edge="1" parent="1" source="2pKGgdyKarqp1mi2ff9K-111" target="2pKGgdyKarqp1mi2ff9K-103">
          <mxGeometry relative="1" as="geometry" />
        </mxCell>
        <mxCell id="2pKGgdyKarqp1mi2ff9K-111" value="" style="ellipse;whiteSpace=wrap;html=1;aspect=fixed;strokeWidth=2;fontSize=24;fillColor=#F19C99;strokeColor=none;dashed=1;" vertex="1" parent="1">
          <mxGeometry x="1870" y="540.5" width="30" height="30" as="geometry" />
        </mxCell>
        <mxCell id="2pKGgdyKarqp1mi2ff9K-113" value="" style="rounded=0;whiteSpace=wrap;html=1;dashed=1;strokeWidth=2;" vertex="1" parent="1">
          <mxGeometry x="810" y="88" width="380" height="825" as="geometry" />
        </mxCell>
        <mxCell id="2pKGgdyKarqp1mi2ff9K-114" value="" style="rounded=0;whiteSpace=wrap;html=1;dashed=1;strokeWidth=2;" vertex="1" parent="1">
          <mxGeometry x="1240" y="88" width="380" height="825" as="geometry" />
        </mxCell>
        <mxCell id="2pKGgdyKarqp1mi2ff9K-115" style="edgeStyle=none;rounded=0;orthogonalLoop=1;jettySize=auto;html=1;exitX=1;exitY=0.5;exitDx=0;exitDy=0;entryX=0;entryY=0;entryDx=0;entryDy=0;strokeColor=#67AB9F;strokeWidth=2;fontSize=24;startArrow=none;startFill=0;endArrow=none;endFill=0;" edge="1" parent="1" source="2pKGgdyKarqp1mi2ff9K-118" target="2pKGgdyKarqp1mi2ff9K-137">
          <mxGeometry relative="1" as="geometry" />
        </mxCell>
        <mxCell id="2pKGgdyKarqp1mi2ff9K-117" style="edgeStyle=none;rounded=0;orthogonalLoop=1;jettySize=auto;html=1;exitX=1;exitY=0.5;exitDx=0;exitDy=0;entryX=0;entryY=0;entryDx=0;entryDy=0;strokeColor=#67AB9F;strokeWidth=2;fontSize=24;startArrow=none;startFill=0;endArrow=none;endFill=0;" edge="1" parent="1" source="2pKGgdyKarqp1mi2ff9K-118" target="2pKGgdyKarqp1mi2ff9K-145">
          <mxGeometry relative="1" as="geometry" />
        </mxCell>
        <mxCell id="2pKGgdyKarqp1mi2ff9K-118" value="" style="ellipse;whiteSpace=wrap;html=1;aspect=fixed;strokeWidth=2;fontSize=24;fillColor=#97D077;strokeColor=none;" vertex="1" parent="1">
          <mxGeometry x="475" y="128" width="30" height="30" as="geometry" />
        </mxCell>
        <mxCell id="2pKGgdyKarqp1mi2ff9K-119" style="edgeStyle=none;rounded=0;orthogonalLoop=1;jettySize=auto;html=1;exitX=1;exitY=0.5;exitDx=0;exitDy=0;entryX=0;entryY=0.5;entryDx=0;entryDy=0;strokeColor=#67AB9F;strokeWidth=2;fontSize=24;startArrow=none;startFill=0;endArrow=none;endFill=0;" edge="1" parent="1" source="2pKGgdyKarqp1mi2ff9K-123" target="2pKGgdyKarqp1mi2ff9K-137">
          <mxGeometry relative="1" as="geometry" />
        </mxCell>
        <mxCell id="2pKGgdyKarqp1mi2ff9K-120" style="edgeStyle=none;rounded=0;orthogonalLoop=1;jettySize=auto;html=1;exitX=1;exitY=0.5;exitDx=0;exitDy=0;entryX=0;entryY=0.5;entryDx=0;entryDy=0;strokeColor=#67AB9F;strokeWidth=2;fontSize=24;startArrow=none;startFill=0;endArrow=none;endFill=0;" edge="1" parent="1" source="2pKGgdyKarqp1mi2ff9K-123" target="2pKGgdyKarqp1mi2ff9K-141">
          <mxGeometry relative="1" as="geometry" />
        </mxCell>
        <mxCell id="2pKGgdyKarqp1mi2ff9K-123" value="" style="ellipse;whiteSpace=wrap;html=1;aspect=fixed;strokeWidth=2;fontSize=24;fillColor=#97D077;strokeColor=none;" vertex="1" parent="1">
          <mxGeometry x="475" y="198" width="30" height="30" as="geometry" />
        </mxCell>
        <mxCell id="2pKGgdyKarqp1mi2ff9K-125" style="edgeStyle=none;rounded=0;orthogonalLoop=1;jettySize=auto;html=1;exitX=1;exitY=0.5;exitDx=0;exitDy=0;entryX=0;entryY=0.5;entryDx=0;entryDy=0;strokeColor=#67AB9F;strokeWidth=2;fontSize=24;startArrow=none;startFill=0;endArrow=none;endFill=0;" edge="1" parent="1" source="2pKGgdyKarqp1mi2ff9K-128" target="2pKGgdyKarqp1mi2ff9K-141">
          <mxGeometry relative="1" as="geometry" />
        </mxCell>
        <mxCell id="2pKGgdyKarqp1mi2ff9K-126" style="edgeStyle=none;rounded=0;orthogonalLoop=1;jettySize=auto;html=1;exitX=1;exitY=0.5;exitDx=0;exitDy=0;entryX=0;entryY=0.5;entryDx=0;entryDy=0;strokeColor=#67AB9F;strokeWidth=2;fontSize=24;startArrow=none;startFill=0;endArrow=none;endFill=0;" edge="1" parent="1" source="2pKGgdyKarqp1mi2ff9K-128" target="2pKGgdyKarqp1mi2ff9K-145">
          <mxGeometry relative="1" as="geometry" />
        </mxCell>
        <mxCell id="2pKGgdyKarqp1mi2ff9K-128" value="" style="ellipse;whiteSpace=wrap;html=1;aspect=fixed;strokeWidth=2;fontSize=24;fillColor=#97D077;strokeColor=none;" vertex="1" parent="1">
          <mxGeometry x="475" y="268" width="30" height="30" as="geometry" />
        </mxCell>
        <mxCell id="2pKGgdyKarqp1mi2ff9K-129" value="" style="ellipse;whiteSpace=wrap;html=1;aspect=fixed;strokeWidth=2;fontSize=24;fillColor=#97D077;strokeColor=none;" vertex="1" parent="1">
          <mxGeometry x="475" y="338" width="30" height="30" as="geometry" />
        </mxCell>
        <mxCell id="2pKGgdyKarqp1mi2ff9K-131" style="edgeStyle=none;rounded=0;orthogonalLoop=1;jettySize=auto;html=1;exitX=1;exitY=0.5;exitDx=0;exitDy=0;entryX=0;entryY=1;entryDx=0;entryDy=0;strokeColor=#67AB9F;strokeWidth=2;fontSize=24;startArrow=none;startFill=0;endArrow=none;endFill=0;" edge="1" parent="1" source="2pKGgdyKarqp1mi2ff9K-132" target="2pKGgdyKarqp1mi2ff9K-150">
          <mxGeometry relative="1" as="geometry" />
        </mxCell>
        <mxCell id="2pKGgdyKarqp1mi2ff9K-132" value="" style="ellipse;whiteSpace=wrap;html=1;aspect=fixed;strokeWidth=2;fontSize=24;fillColor=#97D077;strokeColor=none;" vertex="1" parent="1">
          <mxGeometry x="475" y="408" width="30" height="30" as="geometry" />
        </mxCell>
        <mxCell id="2pKGgdyKarqp1mi2ff9K-135" style="edgeStyle=none;rounded=0;orthogonalLoop=1;jettySize=auto;html=1;exitX=1;exitY=0.5;exitDx=0;exitDy=0;strokeColor=#67AB9F;strokeWidth=2;fontSize=24;startArrow=none;startFill=0;endArrow=none;endFill=0;" edge="1" parent="1" source="2pKGgdyKarqp1mi2ff9K-137" target="2pKGgdyKarqp1mi2ff9K-151">
          <mxGeometry relative="1" as="geometry" />
        </mxCell>
        <mxCell id="2pKGgdyKarqp1mi2ff9K-137" value="" style="ellipse;whiteSpace=wrap;html=1;aspect=fixed;strokeWidth=2;fontSize=24;fillColor=#97D077;strokeColor=none;" vertex="1" parent="1">
          <mxGeometry x="565" y="173" width="30" height="30" as="geometry" />
        </mxCell>
        <mxCell id="2pKGgdyKarqp1mi2ff9K-139" style="edgeStyle=none;rounded=0;orthogonalLoop=1;jettySize=auto;html=1;exitX=1;exitY=0.5;exitDx=0;exitDy=0;entryX=0;entryY=0.5;entryDx=0;entryDy=0;strokeColor=#67AB9F;strokeWidth=2;fontSize=24;startArrow=none;startFill=0;endArrow=none;endFill=0;" edge="1" parent="1" source="2pKGgdyKarqp1mi2ff9K-141" target="2pKGgdyKarqp1mi2ff9K-151">
          <mxGeometry relative="1" as="geometry" />
        </mxCell>
        <mxCell id="2pKGgdyKarqp1mi2ff9K-141" value="" style="ellipse;whiteSpace=wrap;html=1;aspect=fixed;strokeWidth=2;fontSize=24;fillColor=#97D077;strokeColor=none;" vertex="1" parent="1">
          <mxGeometry x="565" y="233" width="30" height="30" as="geometry" />
        </mxCell>
        <mxCell id="2pKGgdyKarqp1mi2ff9K-143" style="edgeStyle=none;rounded=0;orthogonalLoop=1;jettySize=auto;html=1;exitX=0;exitY=1;exitDx=0;exitDy=0;entryX=1;entryY=0.5;entryDx=0;entryDy=0;strokeColor=#67AB9F;strokeWidth=2;fontSize=24;startArrow=none;startFill=0;endArrow=none;endFill=0;" edge="1" parent="1" source="2pKGgdyKarqp1mi2ff9K-145" target="2pKGgdyKarqp1mi2ff9K-132">
          <mxGeometry relative="1" as="geometry" />
        </mxCell>
        <mxCell id="2pKGgdyKarqp1mi2ff9K-145" value="" style="ellipse;whiteSpace=wrap;html=1;aspect=fixed;strokeWidth=2;fontSize=24;fillColor=#97D077;strokeColor=none;" vertex="1" parent="1">
          <mxGeometry x="565" y="293" width="30" height="30" as="geometry" />
        </mxCell>
        <mxCell id="2pKGgdyKarqp1mi2ff9K-147" style="edgeStyle=none;rounded=0;orthogonalLoop=1;jettySize=auto;html=1;exitX=0;exitY=0.5;exitDx=0;exitDy=0;entryX=1;entryY=0.5;entryDx=0;entryDy=0;strokeColor=#67AB9F;strokeWidth=2;fontSize=24;startArrow=none;startFill=0;endArrow=none;endFill=0;" edge="1" parent="1" source="2pKGgdyKarqp1mi2ff9K-150" target="2pKGgdyKarqp1mi2ff9K-129">
          <mxGeometry relative="1" as="geometry" />
        </mxCell>
        <mxCell id="2pKGgdyKarqp1mi2ff9K-148" style="edgeStyle=none;rounded=0;orthogonalLoop=1;jettySize=auto;html=1;exitX=1;exitY=0.5;exitDx=0;exitDy=0;entryX=0;entryY=1;entryDx=0;entryDy=0;strokeColor=#67AB9F;strokeWidth=2;fontSize=24;startArrow=none;startFill=0;endArrow=none;endFill=0;" edge="1" parent="1" source="2pKGgdyKarqp1mi2ff9K-150" target="2pKGgdyKarqp1mi2ff9K-151">
          <mxGeometry relative="1" as="geometry" />
        </mxCell>
        <mxCell id="2pKGgdyKarqp1mi2ff9K-149" style="edgeStyle=none;rounded=0;orthogonalLoop=1;jettySize=auto;html=1;exitX=1;exitY=0.5;exitDx=0;exitDy=0;entryX=0;entryY=1;entryDx=0;entryDy=0;strokeColor=#67AB9F;strokeWidth=2;fontSize=24;startArrow=none;startFill=0;endArrow=none;endFill=0;" edge="1" parent="1" source="2pKGgdyKarqp1mi2ff9K-150" target="2pKGgdyKarqp1mi2ff9K-153">
          <mxGeometry relative="1" as="geometry" />
        </mxCell>
        <mxCell id="2pKGgdyKarqp1mi2ff9K-150" value="" style="ellipse;whiteSpace=wrap;html=1;aspect=fixed;strokeWidth=2;fontSize=24;fillColor=#97D077;strokeColor=none;" vertex="1" parent="1">
          <mxGeometry x="565" y="353" width="30" height="30" as="geometry" />
        </mxCell>
        <mxCell id="2pKGgdyKarqp1mi2ff9K-151" value="" style="ellipse;whiteSpace=wrap;html=1;aspect=fixed;strokeWidth=2;fontSize=24;fillColor=#97D077;strokeColor=none;" vertex="1" parent="1">
          <mxGeometry x="635" y="208" width="30" height="30" as="geometry" />
        </mxCell>
        <mxCell id="2pKGgdyKarqp1mi2ff9K-152" style="edgeStyle=none;rounded=0;orthogonalLoop=1;jettySize=auto;html=1;exitX=0;exitY=0.5;exitDx=0;exitDy=0;entryX=1;entryY=0.5;entryDx=0;entryDy=0;strokeColor=#67AB9F;strokeWidth=2;fontSize=24;startArrow=none;startFill=0;endArrow=none;endFill=0;" edge="1" parent="1" source="2pKGgdyKarqp1mi2ff9K-153" target="2pKGgdyKarqp1mi2ff9K-145">
          <mxGeometry relative="1" as="geometry" />
        </mxCell>
        <mxCell id="2pKGgdyKarqp1mi2ff9K-153" value="" style="ellipse;whiteSpace=wrap;html=1;aspect=fixed;strokeWidth=2;fontSize=24;fillColor=#97D077;strokeColor=none;" vertex="1" parent="1">
          <mxGeometry x="635" y="323" width="30" height="30" as="geometry" />
        </mxCell>
        <mxCell id="2pKGgdyKarqp1mi2ff9K-193" style="edgeStyle=none;rounded=0;orthogonalLoop=1;jettySize=auto;html=1;exitX=1;exitY=0.5;exitDx=0;exitDy=0;entryX=0;entryY=0;entryDx=0;entryDy=0;strokeColor=#67AB9F;strokeWidth=2;fontSize=24;startArrow=none;startFill=0;endArrow=none;endFill=0;dashed=1;" edge="1" parent="1" source="2pKGgdyKarqp1mi2ff9K-195" target="2pKGgdyKarqp1mi2ff9K-206">
          <mxGeometry relative="1" as="geometry" />
        </mxCell>
        <mxCell id="2pKGgdyKarqp1mi2ff9K-194" style="edgeStyle=none;rounded=0;orthogonalLoop=1;jettySize=auto;html=1;exitX=1;exitY=0.5;exitDx=0;exitDy=0;entryX=0;entryY=0;entryDx=0;entryDy=0;strokeColor=#67AB9F;strokeWidth=2;fontSize=24;startArrow=none;startFill=0;endArrow=none;endFill=0;dashed=1;" edge="1" parent="1" source="2pKGgdyKarqp1mi2ff9K-195" target="2pKGgdyKarqp1mi2ff9K-210">
          <mxGeometry relative="1" as="geometry" />
        </mxCell>
        <mxCell id="2pKGgdyKarqp1mi2ff9K-195" value="" style="ellipse;whiteSpace=wrap;html=1;aspect=fixed;strokeWidth=2;fontSize=24;fillColor=#97D077;strokeColor=none;" vertex="1" parent="1">
          <mxGeometry x="912.5" y="133" width="30" height="30" as="geometry" />
        </mxCell>
        <mxCell id="2pKGgdyKarqp1mi2ff9K-196" style="edgeStyle=none;rounded=0;orthogonalLoop=1;jettySize=auto;html=1;exitX=1;exitY=0.5;exitDx=0;exitDy=0;entryX=0;entryY=0.5;entryDx=0;entryDy=0;strokeColor=#67AB9F;strokeWidth=2;fontSize=24;startArrow=none;startFill=0;endArrow=none;endFill=0;dashed=1;" edge="1" parent="1" source="2pKGgdyKarqp1mi2ff9K-198" target="2pKGgdyKarqp1mi2ff9K-206">
          <mxGeometry relative="1" as="geometry" />
        </mxCell>
        <mxCell id="2pKGgdyKarqp1mi2ff9K-197" style="edgeStyle=none;rounded=0;orthogonalLoop=1;jettySize=auto;html=1;exitX=1;exitY=0.5;exitDx=0;exitDy=0;entryX=0;entryY=0.5;entryDx=0;entryDy=0;strokeColor=#67AB9F;strokeWidth=2;fontSize=24;startArrow=none;startFill=0;endArrow=none;endFill=0;dashed=1;" edge="1" parent="1" source="2pKGgdyKarqp1mi2ff9K-198" target="2pKGgdyKarqp1mi2ff9K-208">
          <mxGeometry relative="1" as="geometry" />
        </mxCell>
        <mxCell id="2pKGgdyKarqp1mi2ff9K-198" value="" style="ellipse;whiteSpace=wrap;html=1;aspect=fixed;strokeWidth=2;fontSize=24;fillColor=#97D077;strokeColor=none;" vertex="1" parent="1">
          <mxGeometry x="912.5" y="203" width="30" height="30" as="geometry" />
        </mxCell>
        <mxCell id="2pKGgdyKarqp1mi2ff9K-199" style="edgeStyle=none;rounded=0;orthogonalLoop=1;jettySize=auto;html=1;exitX=1;exitY=0.5;exitDx=0;exitDy=0;entryX=0;entryY=0.5;entryDx=0;entryDy=0;strokeColor=#67AB9F;strokeWidth=2;fontSize=24;startArrow=none;startFill=0;endArrow=none;endFill=0;dashed=1;" edge="1" parent="1" source="2pKGgdyKarqp1mi2ff9K-201" target="2pKGgdyKarqp1mi2ff9K-208">
          <mxGeometry relative="1" as="geometry" />
        </mxCell>
        <mxCell id="2pKGgdyKarqp1mi2ff9K-200" style="edgeStyle=none;rounded=0;orthogonalLoop=1;jettySize=auto;html=1;exitX=1;exitY=0.5;exitDx=0;exitDy=0;entryX=0;entryY=0.5;entryDx=0;entryDy=0;strokeColor=#67AB9F;strokeWidth=2;fontSize=24;startArrow=none;startFill=0;endArrow=none;endFill=0;dashed=1;" edge="1" parent="1" source="2pKGgdyKarqp1mi2ff9K-201" target="2pKGgdyKarqp1mi2ff9K-210">
          <mxGeometry relative="1" as="geometry" />
        </mxCell>
        <mxCell id="2pKGgdyKarqp1mi2ff9K-201" value="" style="ellipse;whiteSpace=wrap;html=1;aspect=fixed;strokeWidth=2;fontSize=24;fillColor=#97D077;strokeColor=none;" vertex="1" parent="1">
          <mxGeometry x="912.5" y="273" width="30" height="30" as="geometry" />
        </mxCell>
        <mxCell id="2pKGgdyKarqp1mi2ff9K-202" value="" style="ellipse;whiteSpace=wrap;html=1;aspect=fixed;strokeWidth=2;fontSize=24;fillColor=#97D077;strokeColor=none;" vertex="1" parent="1">
          <mxGeometry x="912.5" y="343" width="30" height="30" as="geometry" />
        </mxCell>
        <mxCell id="2pKGgdyKarqp1mi2ff9K-203" style="edgeStyle=none;rounded=0;orthogonalLoop=1;jettySize=auto;html=1;exitX=1;exitY=0.5;exitDx=0;exitDy=0;entryX=0;entryY=1;entryDx=0;entryDy=0;strokeColor=#67AB9F;strokeWidth=2;fontSize=24;startArrow=none;startFill=0;endArrow=none;endFill=0;dashed=1;" edge="1" parent="1" source="2pKGgdyKarqp1mi2ff9K-204" target="2pKGgdyKarqp1mi2ff9K-214">
          <mxGeometry relative="1" as="geometry" />
        </mxCell>
        <mxCell id="2pKGgdyKarqp1mi2ff9K-204" value="" style="ellipse;whiteSpace=wrap;html=1;aspect=fixed;strokeWidth=2;fontSize=24;fillColor=#97D077;strokeColor=none;" vertex="1" parent="1">
          <mxGeometry x="912.5" y="413" width="30" height="30" as="geometry" />
        </mxCell>
        <mxCell id="2pKGgdyKarqp1mi2ff9K-205" style="edgeStyle=none;rounded=0;orthogonalLoop=1;jettySize=auto;html=1;exitX=1;exitY=0.5;exitDx=0;exitDy=0;strokeColor=#67AB9F;strokeWidth=2;fontSize=24;startArrow=none;startFill=0;endArrow=none;endFill=0;dashed=1;" edge="1" parent="1" source="2pKGgdyKarqp1mi2ff9K-206" target="2pKGgdyKarqp1mi2ff9K-215">
          <mxGeometry relative="1" as="geometry" />
        </mxCell>
        <mxCell id="2pKGgdyKarqp1mi2ff9K-206" value="" style="ellipse;whiteSpace=wrap;html=1;aspect=fixed;strokeWidth=2;fontSize=24;fillColor=#97D077;strokeColor=none;" vertex="1" parent="1">
          <mxGeometry x="1002.5" y="178" width="30" height="30" as="geometry" />
        </mxCell>
        <mxCell id="2pKGgdyKarqp1mi2ff9K-207" style="edgeStyle=none;rounded=0;orthogonalLoop=1;jettySize=auto;html=1;exitX=1;exitY=0.5;exitDx=0;exitDy=0;entryX=0;entryY=0.5;entryDx=0;entryDy=0;strokeColor=#67AB9F;strokeWidth=2;fontSize=24;startArrow=none;startFill=0;endArrow=none;endFill=0;dashed=1;" edge="1" parent="1" source="2pKGgdyKarqp1mi2ff9K-208" target="2pKGgdyKarqp1mi2ff9K-215">
          <mxGeometry relative="1" as="geometry" />
        </mxCell>
        <mxCell id="2pKGgdyKarqp1mi2ff9K-208" value="" style="ellipse;whiteSpace=wrap;html=1;aspect=fixed;strokeWidth=2;fontSize=24;fillColor=#97D077;strokeColor=none;" vertex="1" parent="1">
          <mxGeometry x="1002.5" y="238" width="30" height="30" as="geometry" />
        </mxCell>
        <mxCell id="2pKGgdyKarqp1mi2ff9K-209" style="edgeStyle=none;rounded=0;orthogonalLoop=1;jettySize=auto;html=1;exitX=0;exitY=1;exitDx=0;exitDy=0;entryX=1;entryY=0.5;entryDx=0;entryDy=0;strokeColor=#67AB9F;strokeWidth=2;fontSize=24;startArrow=none;startFill=0;endArrow=none;endFill=0;dashed=1;" edge="1" parent="1" source="2pKGgdyKarqp1mi2ff9K-210" target="2pKGgdyKarqp1mi2ff9K-204">
          <mxGeometry relative="1" as="geometry" />
        </mxCell>
        <mxCell id="2pKGgdyKarqp1mi2ff9K-210" value="" style="ellipse;whiteSpace=wrap;html=1;aspect=fixed;strokeWidth=2;fontSize=24;fillColor=#97D077;strokeColor=none;" vertex="1" parent="1">
          <mxGeometry x="1002.5" y="298" width="30" height="30" as="geometry" />
        </mxCell>
        <mxCell id="2pKGgdyKarqp1mi2ff9K-211" style="edgeStyle=none;rounded=0;orthogonalLoop=1;jettySize=auto;html=1;exitX=0;exitY=0.5;exitDx=0;exitDy=0;entryX=1;entryY=0.5;entryDx=0;entryDy=0;strokeColor=#67AB9F;strokeWidth=2;fontSize=24;startArrow=none;startFill=0;endArrow=none;endFill=0;dashed=1;" edge="1" parent="1" source="2pKGgdyKarqp1mi2ff9K-214" target="2pKGgdyKarqp1mi2ff9K-202">
          <mxGeometry relative="1" as="geometry" />
        </mxCell>
        <mxCell id="2pKGgdyKarqp1mi2ff9K-212" style="edgeStyle=none;rounded=0;orthogonalLoop=1;jettySize=auto;html=1;exitX=1;exitY=0.5;exitDx=0;exitDy=0;entryX=0;entryY=1;entryDx=0;entryDy=0;strokeColor=#67AB9F;strokeWidth=2;fontSize=24;startArrow=none;startFill=0;endArrow=none;endFill=0;dashed=1;" edge="1" parent="1" source="2pKGgdyKarqp1mi2ff9K-214" target="2pKGgdyKarqp1mi2ff9K-215">
          <mxGeometry relative="1" as="geometry" />
        </mxCell>
        <mxCell id="2pKGgdyKarqp1mi2ff9K-213" style="edgeStyle=none;rounded=0;orthogonalLoop=1;jettySize=auto;html=1;exitX=1;exitY=0.5;exitDx=0;exitDy=0;entryX=0;entryY=1;entryDx=0;entryDy=0;strokeColor=#67AB9F;strokeWidth=2;fontSize=24;startArrow=none;startFill=0;endArrow=none;endFill=0;dashed=1;" edge="1" parent="1" source="2pKGgdyKarqp1mi2ff9K-214" target="2pKGgdyKarqp1mi2ff9K-217">
          <mxGeometry relative="1" as="geometry" />
        </mxCell>
        <mxCell id="2pKGgdyKarqp1mi2ff9K-214" value="" style="ellipse;whiteSpace=wrap;html=1;aspect=fixed;strokeWidth=2;fontSize=24;fillColor=#97D077;strokeColor=none;" vertex="1" parent="1">
          <mxGeometry x="1002.5" y="358" width="30" height="30" as="geometry" />
        </mxCell>
        <mxCell id="2pKGgdyKarqp1mi2ff9K-215" value="" style="ellipse;whiteSpace=wrap;html=1;aspect=fixed;strokeWidth=2;fontSize=24;fillColor=#97D077;strokeColor=none;" vertex="1" parent="1">
          <mxGeometry x="1072.5" y="213" width="30" height="30" as="geometry" />
        </mxCell>
        <mxCell id="2pKGgdyKarqp1mi2ff9K-216" style="edgeStyle=none;rounded=0;orthogonalLoop=1;jettySize=auto;html=1;exitX=0;exitY=0.5;exitDx=0;exitDy=0;entryX=1;entryY=0.5;entryDx=0;entryDy=0;strokeColor=#67AB9F;strokeWidth=2;fontSize=24;startArrow=none;startFill=0;endArrow=none;endFill=0;dashed=1;" edge="1" parent="1" source="2pKGgdyKarqp1mi2ff9K-217" target="2pKGgdyKarqp1mi2ff9K-210">
          <mxGeometry relative="1" as="geometry" />
        </mxCell>
        <mxCell id="2pKGgdyKarqp1mi2ff9K-217" value="" style="ellipse;whiteSpace=wrap;html=1;aspect=fixed;strokeWidth=2;fontSize=24;fillColor=#97D077;strokeColor=none;" vertex="1" parent="1">
          <mxGeometry x="1072.5" y="328" width="30" height="30" as="geometry" />
        </mxCell>
        <mxCell id="2pKGgdyKarqp1mi2ff9K-218" style="edgeStyle=none;rounded=0;orthogonalLoop=1;jettySize=auto;html=1;exitX=1;exitY=0.5;exitDx=0;exitDy=0;entryX=0;entryY=0;entryDx=0;entryDy=0;strokeColor=#67AB9F;strokeWidth=2;fontSize=24;startArrow=none;startFill=0;endArrow=none;endFill=0;dashed=1;" edge="1" parent="1" source="2pKGgdyKarqp1mi2ff9K-220" target="2pKGgdyKarqp1mi2ff9K-231">
          <mxGeometry relative="1" as="geometry" />
        </mxCell>
        <mxCell id="2pKGgdyKarqp1mi2ff9K-219" style="edgeStyle=none;rounded=0;orthogonalLoop=1;jettySize=auto;html=1;exitX=1;exitY=0.5;exitDx=0;exitDy=0;entryX=0;entryY=0;entryDx=0;entryDy=0;strokeColor=#67AB9F;strokeWidth=2;fontSize=24;startArrow=none;startFill=0;endArrow=none;endFill=0;dashed=1;" edge="1" parent="1" source="2pKGgdyKarqp1mi2ff9K-220" target="2pKGgdyKarqp1mi2ff9K-235">
          <mxGeometry relative="1" as="geometry" />
        </mxCell>
        <mxCell id="2pKGgdyKarqp1mi2ff9K-220" value="" style="ellipse;whiteSpace=wrap;html=1;aspect=fixed;strokeWidth=2;fontSize=24;fillColor=#97D077;strokeColor=none;" vertex="1" parent="1">
          <mxGeometry x="1335" y="133" width="30" height="30" as="geometry" />
        </mxCell>
        <mxCell id="2pKGgdyKarqp1mi2ff9K-221" style="edgeStyle=none;rounded=0;orthogonalLoop=1;jettySize=auto;html=1;exitX=1;exitY=0.5;exitDx=0;exitDy=0;entryX=0;entryY=0.5;entryDx=0;entryDy=0;strokeColor=#67AB9F;strokeWidth=2;fontSize=24;startArrow=none;startFill=0;endArrow=none;endFill=0;dashed=1;" edge="1" parent="1" source="2pKGgdyKarqp1mi2ff9K-223" target="2pKGgdyKarqp1mi2ff9K-231">
          <mxGeometry relative="1" as="geometry" />
        </mxCell>
        <mxCell id="2pKGgdyKarqp1mi2ff9K-222" style="edgeStyle=none;rounded=0;orthogonalLoop=1;jettySize=auto;html=1;exitX=1;exitY=0.5;exitDx=0;exitDy=0;entryX=0;entryY=0.5;entryDx=0;entryDy=0;strokeColor=#67AB9F;strokeWidth=2;fontSize=24;startArrow=none;startFill=0;endArrow=none;endFill=0;dashed=1;" edge="1" parent="1" source="2pKGgdyKarqp1mi2ff9K-223" target="2pKGgdyKarqp1mi2ff9K-233">
          <mxGeometry relative="1" as="geometry" />
        </mxCell>
        <mxCell id="2pKGgdyKarqp1mi2ff9K-223" value="" style="ellipse;whiteSpace=wrap;html=1;aspect=fixed;strokeWidth=2;fontSize=24;fillColor=#97D077;strokeColor=none;" vertex="1" parent="1">
          <mxGeometry x="1335" y="203" width="30" height="30" as="geometry" />
        </mxCell>
        <mxCell id="2pKGgdyKarqp1mi2ff9K-224" style="edgeStyle=none;rounded=0;orthogonalLoop=1;jettySize=auto;html=1;exitX=1;exitY=0.5;exitDx=0;exitDy=0;entryX=0;entryY=0.5;entryDx=0;entryDy=0;strokeColor=#67AB9F;strokeWidth=2;fontSize=24;startArrow=none;startFill=0;endArrow=none;endFill=0;dashed=1;" edge="1" parent="1" source="2pKGgdyKarqp1mi2ff9K-226" target="2pKGgdyKarqp1mi2ff9K-233">
          <mxGeometry relative="1" as="geometry" />
        </mxCell>
        <mxCell id="2pKGgdyKarqp1mi2ff9K-225" style="edgeStyle=none;rounded=0;orthogonalLoop=1;jettySize=auto;html=1;exitX=1;exitY=0.5;exitDx=0;exitDy=0;entryX=0;entryY=0.5;entryDx=0;entryDy=0;strokeColor=#67AB9F;strokeWidth=2;fontSize=24;startArrow=none;startFill=0;endArrow=none;endFill=0;dashed=1;" edge="1" parent="1" source="2pKGgdyKarqp1mi2ff9K-226" target="2pKGgdyKarqp1mi2ff9K-235">
          <mxGeometry relative="1" as="geometry" />
        </mxCell>
        <mxCell id="2pKGgdyKarqp1mi2ff9K-226" value="" style="ellipse;whiteSpace=wrap;html=1;aspect=fixed;strokeWidth=2;fontSize=24;fillColor=#97D077;strokeColor=none;" vertex="1" parent="1">
          <mxGeometry x="1335" y="273" width="30" height="30" as="geometry" />
        </mxCell>
        <mxCell id="2pKGgdyKarqp1mi2ff9K-227" value="" style="ellipse;whiteSpace=wrap;html=1;aspect=fixed;strokeWidth=2;fontSize=24;fillColor=#97D077;strokeColor=none;" vertex="1" parent="1">
          <mxGeometry x="1335" y="343" width="30" height="30" as="geometry" />
        </mxCell>
        <mxCell id="2pKGgdyKarqp1mi2ff9K-228" style="edgeStyle=none;rounded=0;orthogonalLoop=1;jettySize=auto;html=1;exitX=1;exitY=0.5;exitDx=0;exitDy=0;entryX=0;entryY=1;entryDx=0;entryDy=0;strokeColor=#67AB9F;strokeWidth=2;fontSize=24;startArrow=none;startFill=0;endArrow=none;endFill=0;dashed=1;" edge="1" parent="1" source="2pKGgdyKarqp1mi2ff9K-229" target="2pKGgdyKarqp1mi2ff9K-239">
          <mxGeometry relative="1" as="geometry" />
        </mxCell>
        <mxCell id="2pKGgdyKarqp1mi2ff9K-229" value="" style="ellipse;whiteSpace=wrap;html=1;aspect=fixed;strokeWidth=2;fontSize=24;fillColor=#97D077;strokeColor=none;" vertex="1" parent="1">
          <mxGeometry x="1335" y="413" width="30" height="30" as="geometry" />
        </mxCell>
        <mxCell id="2pKGgdyKarqp1mi2ff9K-230" style="edgeStyle=none;rounded=0;orthogonalLoop=1;jettySize=auto;html=1;exitX=1;exitY=0.5;exitDx=0;exitDy=0;strokeColor=#67AB9F;strokeWidth=2;fontSize=24;startArrow=none;startFill=0;endArrow=none;endFill=0;dashed=1;" edge="1" parent="1" source="2pKGgdyKarqp1mi2ff9K-231" target="2pKGgdyKarqp1mi2ff9K-240">
          <mxGeometry relative="1" as="geometry" />
        </mxCell>
        <mxCell id="2pKGgdyKarqp1mi2ff9K-231" value="" style="ellipse;whiteSpace=wrap;html=1;aspect=fixed;strokeWidth=2;fontSize=24;fillColor=#97D077;strokeColor=none;" vertex="1" parent="1">
          <mxGeometry x="1425" y="178" width="30" height="30" as="geometry" />
        </mxCell>
        <mxCell id="2pKGgdyKarqp1mi2ff9K-232" style="edgeStyle=none;rounded=0;orthogonalLoop=1;jettySize=auto;html=1;exitX=1;exitY=0.5;exitDx=0;exitDy=0;entryX=0;entryY=0.5;entryDx=0;entryDy=0;strokeColor=#67AB9F;strokeWidth=2;fontSize=24;startArrow=none;startFill=0;endArrow=none;endFill=0;dashed=1;" edge="1" parent="1" source="2pKGgdyKarqp1mi2ff9K-233" target="2pKGgdyKarqp1mi2ff9K-240">
          <mxGeometry relative="1" as="geometry" />
        </mxCell>
        <mxCell id="2pKGgdyKarqp1mi2ff9K-233" value="" style="ellipse;whiteSpace=wrap;html=1;aspect=fixed;strokeWidth=2;fontSize=24;fillColor=#97D077;strokeColor=none;" vertex="1" parent="1">
          <mxGeometry x="1425" y="238" width="30" height="30" as="geometry" />
        </mxCell>
        <mxCell id="2pKGgdyKarqp1mi2ff9K-234" style="edgeStyle=none;rounded=0;orthogonalLoop=1;jettySize=auto;html=1;exitX=0;exitY=1;exitDx=0;exitDy=0;entryX=1;entryY=0.5;entryDx=0;entryDy=0;strokeColor=#67AB9F;strokeWidth=2;fontSize=24;startArrow=none;startFill=0;endArrow=none;endFill=0;dashed=1;" edge="1" parent="1" source="2pKGgdyKarqp1mi2ff9K-235" target="2pKGgdyKarqp1mi2ff9K-229">
          <mxGeometry relative="1" as="geometry" />
        </mxCell>
        <mxCell id="2pKGgdyKarqp1mi2ff9K-235" value="" style="ellipse;whiteSpace=wrap;html=1;aspect=fixed;strokeWidth=2;fontSize=24;fillColor=#97D077;strokeColor=none;" vertex="1" parent="1">
          <mxGeometry x="1425" y="298" width="30" height="30" as="geometry" />
        </mxCell>
        <mxCell id="2pKGgdyKarqp1mi2ff9K-236" style="edgeStyle=none;rounded=0;orthogonalLoop=1;jettySize=auto;html=1;exitX=0;exitY=0.5;exitDx=0;exitDy=0;entryX=1;entryY=0.5;entryDx=0;entryDy=0;strokeColor=#67AB9F;strokeWidth=2;fontSize=24;startArrow=none;startFill=0;endArrow=none;endFill=0;dashed=1;" edge="1" parent="1" source="2pKGgdyKarqp1mi2ff9K-239" target="2pKGgdyKarqp1mi2ff9K-227">
          <mxGeometry relative="1" as="geometry" />
        </mxCell>
        <mxCell id="2pKGgdyKarqp1mi2ff9K-237" style="edgeStyle=none;rounded=0;orthogonalLoop=1;jettySize=auto;html=1;exitX=1;exitY=0.5;exitDx=0;exitDy=0;entryX=0;entryY=1;entryDx=0;entryDy=0;strokeColor=#67AB9F;strokeWidth=2;fontSize=24;startArrow=none;startFill=0;endArrow=none;endFill=0;dashed=1;" edge="1" parent="1" source="2pKGgdyKarqp1mi2ff9K-239" target="2pKGgdyKarqp1mi2ff9K-240">
          <mxGeometry relative="1" as="geometry" />
        </mxCell>
        <mxCell id="2pKGgdyKarqp1mi2ff9K-238" style="edgeStyle=none;rounded=0;orthogonalLoop=1;jettySize=auto;html=1;exitX=1;exitY=0.5;exitDx=0;exitDy=0;entryX=0;entryY=1;entryDx=0;entryDy=0;strokeColor=#67AB9F;strokeWidth=2;fontSize=24;startArrow=none;startFill=0;endArrow=none;endFill=0;dashed=1;" edge="1" parent="1" source="2pKGgdyKarqp1mi2ff9K-239" target="2pKGgdyKarqp1mi2ff9K-242">
          <mxGeometry relative="1" as="geometry" />
        </mxCell>
        <mxCell id="2pKGgdyKarqp1mi2ff9K-239" value="" style="ellipse;whiteSpace=wrap;html=1;aspect=fixed;strokeWidth=2;fontSize=24;fillColor=#97D077;strokeColor=none;" vertex="1" parent="1">
          <mxGeometry x="1425" y="358" width="30" height="30" as="geometry" />
        </mxCell>
        <mxCell id="2pKGgdyKarqp1mi2ff9K-240" value="" style="ellipse;whiteSpace=wrap;html=1;aspect=fixed;strokeWidth=2;fontSize=24;fillColor=#97D077;strokeColor=none;" vertex="1" parent="1">
          <mxGeometry x="1495" y="213" width="30" height="30" as="geometry" />
        </mxCell>
        <mxCell id="2pKGgdyKarqp1mi2ff9K-241" style="edgeStyle=none;rounded=0;orthogonalLoop=1;jettySize=auto;html=1;exitX=0;exitY=0.5;exitDx=0;exitDy=0;entryX=1;entryY=0.5;entryDx=0;entryDy=0;strokeColor=#67AB9F;strokeWidth=2;fontSize=24;startArrow=none;startFill=0;endArrow=none;endFill=0;dashed=1;" edge="1" parent="1" source="2pKGgdyKarqp1mi2ff9K-242" target="2pKGgdyKarqp1mi2ff9K-235">
          <mxGeometry relative="1" as="geometry" />
        </mxCell>
        <mxCell id="2pKGgdyKarqp1mi2ff9K-242" value="" style="ellipse;whiteSpace=wrap;html=1;aspect=fixed;strokeWidth=2;fontSize=24;fillColor=#97D077;strokeColor=none;" vertex="1" parent="1">
          <mxGeometry x="1495" y="328" width="30" height="30" as="geometry" />
        </mxCell>
        <mxCell id="2pKGgdyKarqp1mi2ff9K-243" style="edgeStyle=none;rounded=0;orthogonalLoop=1;jettySize=auto;html=1;exitX=1;exitY=0.5;exitDx=0;exitDy=0;entryX=0;entryY=0;entryDx=0;entryDy=0;strokeColor=#B5739D;strokeWidth=2;fontSize=24;startArrow=none;startFill=0;endArrow=none;endFill=0;" edge="1" parent="1" source="2pKGgdyKarqp1mi2ff9K-246" target="2pKGgdyKarqp1mi2ff9K-265">
          <mxGeometry relative="1" as="geometry" />
        </mxCell>
        <mxCell id="2pKGgdyKarqp1mi2ff9K-244" style="edgeStyle=none;rounded=0;orthogonalLoop=1;jettySize=auto;html=1;exitX=1;exitY=0.5;exitDx=0;exitDy=0;entryX=0;entryY=0;entryDx=0;entryDy=0;strokeColor=#B5739D;strokeWidth=2;fontSize=24;startArrow=none;startFill=0;endArrow=none;endFill=0;" edge="1" parent="1" source="2pKGgdyKarqp1mi2ff9K-246" target="2pKGgdyKarqp1mi2ff9K-269">
          <mxGeometry relative="1" as="geometry" />
        </mxCell>
        <mxCell id="2pKGgdyKarqp1mi2ff9K-245" style="edgeStyle=none;rounded=0;orthogonalLoop=1;jettySize=auto;html=1;exitX=1;exitY=0.5;exitDx=0;exitDy=0;entryX=0;entryY=0;entryDx=0;entryDy=0;strokeColor=#B5739D;strokeWidth=2;fontSize=24;startArrow=none;startFill=0;endArrow=none;endFill=0;" edge="1" parent="1" source="2pKGgdyKarqp1mi2ff9K-246" target="2pKGgdyKarqp1mi2ff9K-273">
          <mxGeometry relative="1" as="geometry" />
        </mxCell>
        <mxCell id="2pKGgdyKarqp1mi2ff9K-246" value="" style="ellipse;whiteSpace=wrap;html=1;aspect=fixed;strokeWidth=2;fontSize=24;fillColor=#F19C99;strokeColor=none;" vertex="1" parent="1">
          <mxGeometry x="1332.5" y="543" width="30" height="30" as="geometry" />
        </mxCell>
        <mxCell id="2pKGgdyKarqp1mi2ff9K-247" style="edgeStyle=none;rounded=0;orthogonalLoop=1;jettySize=auto;html=1;exitX=1;exitY=0.5;exitDx=0;exitDy=0;entryX=0;entryY=0.5;entryDx=0;entryDy=0;strokeColor=#B5739D;strokeWidth=2;fontSize=24;startArrow=none;startFill=0;endArrow=none;endFill=0;" edge="1" parent="1" source="2pKGgdyKarqp1mi2ff9K-251" target="2pKGgdyKarqp1mi2ff9K-265">
          <mxGeometry relative="1" as="geometry" />
        </mxCell>
        <mxCell id="2pKGgdyKarqp1mi2ff9K-248" style="edgeStyle=none;rounded=0;orthogonalLoop=1;jettySize=auto;html=1;exitX=1;exitY=0.5;exitDx=0;exitDy=0;entryX=0;entryY=0.5;entryDx=0;entryDy=0;strokeColor=#B5739D;strokeWidth=2;fontSize=24;startArrow=none;startFill=0;endArrow=none;endFill=0;" edge="1" parent="1" source="2pKGgdyKarqp1mi2ff9K-251" target="2pKGgdyKarqp1mi2ff9K-269">
          <mxGeometry relative="1" as="geometry" />
        </mxCell>
        <mxCell id="2pKGgdyKarqp1mi2ff9K-249" style="edgeStyle=none;rounded=0;orthogonalLoop=1;jettySize=auto;html=1;exitX=1;exitY=0.5;exitDx=0;exitDy=0;entryX=0;entryY=0;entryDx=0;entryDy=0;strokeColor=#B5739D;strokeWidth=2;fontSize=24;startArrow=none;startFill=0;endArrow=none;endFill=0;" edge="1" parent="1" source="2pKGgdyKarqp1mi2ff9K-251" target="2pKGgdyKarqp1mi2ff9K-273">
          <mxGeometry relative="1" as="geometry" />
        </mxCell>
        <mxCell id="2pKGgdyKarqp1mi2ff9K-250" style="edgeStyle=none;rounded=0;orthogonalLoop=1;jettySize=auto;html=1;exitX=1;exitY=0.5;exitDx=0;exitDy=0;entryX=0;entryY=0;entryDx=0;entryDy=0;strokeColor=#B5739D;strokeWidth=2;fontSize=24;startArrow=none;startFill=0;endArrow=none;endFill=0;" edge="1" parent="1" source="2pKGgdyKarqp1mi2ff9K-251" target="2pKGgdyKarqp1mi2ff9K-278">
          <mxGeometry relative="1" as="geometry" />
        </mxCell>
        <mxCell id="2pKGgdyKarqp1mi2ff9K-251" value="" style="ellipse;whiteSpace=wrap;html=1;aspect=fixed;strokeWidth=2;fontSize=24;fillColor=#F19C99;strokeColor=none;" vertex="1" parent="1">
          <mxGeometry x="1332.5" y="613" width="30" height="30" as="geometry" />
        </mxCell>
        <mxCell id="2pKGgdyKarqp1mi2ff9K-252" style="edgeStyle=none;rounded=0;orthogonalLoop=1;jettySize=auto;html=1;exitX=1;exitY=0.5;exitDx=0;exitDy=0;entryX=0;entryY=1;entryDx=0;entryDy=0;strokeColor=#B5739D;strokeWidth=2;fontSize=24;startArrow=none;startFill=0;endArrow=none;endFill=0;" edge="1" parent="1" source="2pKGgdyKarqp1mi2ff9K-256" target="2pKGgdyKarqp1mi2ff9K-265">
          <mxGeometry relative="1" as="geometry" />
        </mxCell>
        <mxCell id="2pKGgdyKarqp1mi2ff9K-253" style="edgeStyle=none;rounded=0;orthogonalLoop=1;jettySize=auto;html=1;exitX=1;exitY=0.5;exitDx=0;exitDy=0;entryX=0;entryY=0.5;entryDx=0;entryDy=0;strokeColor=#B5739D;strokeWidth=2;fontSize=24;startArrow=none;startFill=0;endArrow=none;endFill=0;" edge="1" parent="1" source="2pKGgdyKarqp1mi2ff9K-256" target="2pKGgdyKarqp1mi2ff9K-269">
          <mxGeometry relative="1" as="geometry" />
        </mxCell>
        <mxCell id="2pKGgdyKarqp1mi2ff9K-254" style="edgeStyle=none;rounded=0;orthogonalLoop=1;jettySize=auto;html=1;exitX=1;exitY=0.5;exitDx=0;exitDy=0;entryX=0;entryY=0.5;entryDx=0;entryDy=0;strokeColor=#B5739D;strokeWidth=2;fontSize=24;startArrow=none;startFill=0;endArrow=none;endFill=0;" edge="1" parent="1" source="2pKGgdyKarqp1mi2ff9K-256" target="2pKGgdyKarqp1mi2ff9K-273">
          <mxGeometry relative="1" as="geometry" />
        </mxCell>
        <mxCell id="2pKGgdyKarqp1mi2ff9K-255" style="edgeStyle=none;rounded=0;orthogonalLoop=1;jettySize=auto;html=1;exitX=1;exitY=0.5;exitDx=0;exitDy=0;entryX=0;entryY=0;entryDx=0;entryDy=0;strokeColor=#B5739D;strokeWidth=2;fontSize=24;startArrow=none;startFill=0;endArrow=none;endFill=0;" edge="1" parent="1" source="2pKGgdyKarqp1mi2ff9K-256" target="2pKGgdyKarqp1mi2ff9K-278">
          <mxGeometry relative="1" as="geometry" />
        </mxCell>
        <mxCell id="2pKGgdyKarqp1mi2ff9K-256" value="" style="ellipse;whiteSpace=wrap;html=1;aspect=fixed;strokeWidth=2;fontSize=24;fillColor=#F19C99;strokeColor=none;" vertex="1" parent="1">
          <mxGeometry x="1332.5" y="683" width="30" height="30" as="geometry" />
        </mxCell>
        <mxCell id="2pKGgdyKarqp1mi2ff9K-257" value="" style="ellipse;whiteSpace=wrap;html=1;aspect=fixed;strokeWidth=2;fontSize=24;fillColor=#F19C99;strokeColor=none;" vertex="1" parent="1">
          <mxGeometry x="1332.5" y="753" width="30" height="30" as="geometry" />
        </mxCell>
        <mxCell id="2pKGgdyKarqp1mi2ff9K-258" style="edgeStyle=none;rounded=0;orthogonalLoop=1;jettySize=auto;html=1;exitX=1;exitY=0.5;exitDx=0;exitDy=0;entryX=0;entryY=1;entryDx=0;entryDy=0;strokeColor=#B5739D;strokeWidth=2;fontSize=24;startArrow=none;startFill=0;endArrow=none;endFill=0;" edge="1" parent="1" source="2pKGgdyKarqp1mi2ff9K-260" target="2pKGgdyKarqp1mi2ff9K-269">
          <mxGeometry relative="1" as="geometry" />
        </mxCell>
        <mxCell id="2pKGgdyKarqp1mi2ff9K-259" style="edgeStyle=none;rounded=0;orthogonalLoop=1;jettySize=auto;html=1;exitX=1;exitY=0.5;exitDx=0;exitDy=0;entryX=0;entryY=1;entryDx=0;entryDy=0;strokeColor=#B5739D;strokeWidth=2;fontSize=24;startArrow=none;startFill=0;endArrow=none;endFill=0;" edge="1" parent="1" source="2pKGgdyKarqp1mi2ff9K-260" target="2pKGgdyKarqp1mi2ff9K-278">
          <mxGeometry relative="1" as="geometry" />
        </mxCell>
        <mxCell id="2pKGgdyKarqp1mi2ff9K-260" value="" style="ellipse;whiteSpace=wrap;html=1;aspect=fixed;strokeWidth=2;fontSize=24;fillColor=#F19C99;strokeColor=none;" vertex="1" parent="1">
          <mxGeometry x="1332.5" y="823" width="30" height="30" as="geometry" />
        </mxCell>
        <mxCell id="2pKGgdyKarqp1mi2ff9K-261" style="edgeStyle=none;rounded=0;orthogonalLoop=1;jettySize=auto;html=1;exitX=0;exitY=1;exitDx=0;exitDy=0;entryX=1;entryY=0.5;entryDx=0;entryDy=0;strokeColor=#B5739D;strokeWidth=2;fontSize=24;startArrow=none;startFill=0;endArrow=none;endFill=0;" edge="1" parent="1" source="2pKGgdyKarqp1mi2ff9K-265" target="2pKGgdyKarqp1mi2ff9K-257">
          <mxGeometry relative="1" as="geometry" />
        </mxCell>
        <mxCell id="2pKGgdyKarqp1mi2ff9K-262" style="edgeStyle=none;rounded=0;orthogonalLoop=1;jettySize=auto;html=1;exitX=0;exitY=1;exitDx=0;exitDy=0;entryX=1;entryY=0.5;entryDx=0;entryDy=0;strokeColor=#B5739D;strokeWidth=2;fontSize=24;startArrow=none;startFill=0;endArrow=none;endFill=0;" edge="1" parent="1" source="2pKGgdyKarqp1mi2ff9K-265" target="2pKGgdyKarqp1mi2ff9K-260">
          <mxGeometry relative="1" as="geometry" />
        </mxCell>
        <mxCell id="2pKGgdyKarqp1mi2ff9K-263" style="edgeStyle=none;rounded=0;orthogonalLoop=1;jettySize=auto;html=1;exitX=1;exitY=0.5;exitDx=0;exitDy=0;strokeColor=#B5739D;strokeWidth=2;fontSize=24;startArrow=none;startFill=0;endArrow=none;endFill=0;" edge="1" parent="1" source="2pKGgdyKarqp1mi2ff9K-265" target="2pKGgdyKarqp1mi2ff9K-279">
          <mxGeometry relative="1" as="geometry" />
        </mxCell>
        <mxCell id="2pKGgdyKarqp1mi2ff9K-264" style="edgeStyle=none;rounded=0;orthogonalLoop=1;jettySize=auto;html=1;exitX=1;exitY=0.5;exitDx=0;exitDy=0;strokeColor=#B5739D;strokeWidth=2;fontSize=24;startArrow=none;startFill=0;endArrow=none;endFill=0;entryX=0;entryY=0;entryDx=0;entryDy=0;" edge="1" parent="1" source="2pKGgdyKarqp1mi2ff9K-265" target="2pKGgdyKarqp1mi2ff9K-281">
          <mxGeometry relative="1" as="geometry">
            <mxPoint x="1512.5" y="723" as="targetPoint" />
          </mxGeometry>
        </mxCell>
        <mxCell id="2pKGgdyKarqp1mi2ff9K-265" value="" style="ellipse;whiteSpace=wrap;html=1;aspect=fixed;strokeWidth=2;fontSize=24;fillColor=#F19C99;strokeColor=none;" vertex="1" parent="1">
          <mxGeometry x="1422.5" y="588" width="30" height="30" as="geometry" />
        </mxCell>
        <mxCell id="2pKGgdyKarqp1mi2ff9K-266" style="edgeStyle=none;rounded=0;orthogonalLoop=1;jettySize=auto;html=1;exitX=0;exitY=1;exitDx=0;exitDy=0;entryX=1;entryY=0.5;entryDx=0;entryDy=0;strokeColor=#B5739D;strokeWidth=2;fontSize=24;startArrow=none;startFill=0;endArrow=none;endFill=0;" edge="1" parent="1" source="2pKGgdyKarqp1mi2ff9K-269" target="2pKGgdyKarqp1mi2ff9K-257">
          <mxGeometry relative="1" as="geometry" />
        </mxCell>
        <mxCell id="2pKGgdyKarqp1mi2ff9K-267" style="edgeStyle=none;rounded=0;orthogonalLoop=1;jettySize=auto;html=1;exitX=1;exitY=0.5;exitDx=0;exitDy=0;entryX=0;entryY=0.5;entryDx=0;entryDy=0;strokeColor=#B5739D;strokeWidth=2;fontSize=24;startArrow=none;startFill=0;endArrow=none;endFill=0;" edge="1" parent="1" source="2pKGgdyKarqp1mi2ff9K-269" target="2pKGgdyKarqp1mi2ff9K-279">
          <mxGeometry relative="1" as="geometry" />
        </mxCell>
        <mxCell id="2pKGgdyKarqp1mi2ff9K-268" style="edgeStyle=none;rounded=0;orthogonalLoop=1;jettySize=auto;html=1;exitX=1;exitY=0.5;exitDx=0;exitDy=0;strokeColor=#B5739D;strokeWidth=2;fontSize=24;startArrow=none;startFill=0;endArrow=none;endFill=0;entryX=0;entryY=0;entryDx=0;entryDy=0;" edge="1" parent="1" source="2pKGgdyKarqp1mi2ff9K-269" target="2pKGgdyKarqp1mi2ff9K-281">
          <mxGeometry relative="1" as="geometry" />
        </mxCell>
        <mxCell id="2pKGgdyKarqp1mi2ff9K-285" style="edgeStyle=none;rounded=0;orthogonalLoop=1;jettySize=auto;html=1;exitX=1;exitY=0.5;exitDx=0;exitDy=0;entryX=0;entryY=0;entryDx=0;entryDy=0;strokeColor=#B5739D;strokeWidth=2;fontSize=24;startArrow=none;startFill=0;endArrow=none;endFill=0;" edge="1" parent="1" source="2pKGgdyKarqp1mi2ff9K-269" target="2pKGgdyKarqp1mi2ff9K-282">
          <mxGeometry relative="1" as="geometry" />
        </mxCell>
        <mxCell id="2pKGgdyKarqp1mi2ff9K-269" value="" style="ellipse;whiteSpace=wrap;html=1;aspect=fixed;strokeWidth=2;fontSize=24;fillColor=#F19C99;strokeColor=none;" vertex="1" parent="1">
          <mxGeometry x="1422.5" y="648" width="30" height="30" as="geometry" />
        </mxCell>
        <mxCell id="2pKGgdyKarqp1mi2ff9K-270" style="edgeStyle=none;rounded=0;orthogonalLoop=1;jettySize=auto;html=1;exitX=0;exitY=1;exitDx=0;exitDy=0;entryX=1;entryY=0.5;entryDx=0;entryDy=0;strokeColor=#B5739D;strokeWidth=2;fontSize=24;startArrow=none;startFill=0;endArrow=none;endFill=0;" edge="1" parent="1" source="2pKGgdyKarqp1mi2ff9K-273" target="2pKGgdyKarqp1mi2ff9K-257">
          <mxGeometry relative="1" as="geometry" />
        </mxCell>
        <mxCell id="2pKGgdyKarqp1mi2ff9K-271" style="edgeStyle=none;rounded=0;orthogonalLoop=1;jettySize=auto;html=1;exitX=0;exitY=1;exitDx=0;exitDy=0;entryX=1;entryY=0.5;entryDx=0;entryDy=0;strokeColor=#B5739D;strokeWidth=2;fontSize=24;startArrow=none;startFill=0;endArrow=none;endFill=0;" edge="1" parent="1" source="2pKGgdyKarqp1mi2ff9K-273" target="2pKGgdyKarqp1mi2ff9K-260">
          <mxGeometry relative="1" as="geometry" />
        </mxCell>
        <mxCell id="2pKGgdyKarqp1mi2ff9K-272" style="edgeStyle=none;rounded=0;orthogonalLoop=1;jettySize=auto;html=1;exitX=1;exitY=0.5;exitDx=0;exitDy=0;entryX=0;entryY=1;entryDx=0;entryDy=0;strokeColor=#B5739D;strokeWidth=2;fontSize=24;startArrow=none;startFill=0;endArrow=none;endFill=0;" edge="1" parent="1" source="2pKGgdyKarqp1mi2ff9K-273" target="2pKGgdyKarqp1mi2ff9K-279">
          <mxGeometry relative="1" as="geometry" />
        </mxCell>
        <mxCell id="2pKGgdyKarqp1mi2ff9K-286" style="edgeStyle=none;rounded=0;orthogonalLoop=1;jettySize=auto;html=1;exitX=1;exitY=0.5;exitDx=0;exitDy=0;entryX=0;entryY=1;entryDx=0;entryDy=0;strokeColor=#B5739D;strokeWidth=2;fontSize=24;startArrow=none;startFill=0;endArrow=none;endFill=0;" edge="1" parent="1" source="2pKGgdyKarqp1mi2ff9K-273" target="2pKGgdyKarqp1mi2ff9K-282">
          <mxGeometry relative="1" as="geometry" />
        </mxCell>
        <mxCell id="2pKGgdyKarqp1mi2ff9K-273" value="" style="ellipse;whiteSpace=wrap;html=1;aspect=fixed;strokeWidth=2;fontSize=24;fillColor=#F19C99;strokeColor=none;" vertex="1" parent="1">
          <mxGeometry x="1422.5" y="708" width="30" height="30" as="geometry" />
        </mxCell>
        <mxCell id="2pKGgdyKarqp1mi2ff9K-274" style="edgeStyle=none;rounded=0;orthogonalLoop=1;jettySize=auto;html=1;exitX=0;exitY=0;exitDx=0;exitDy=0;entryX=1;entryY=0.5;entryDx=0;entryDy=0;strokeColor=#B5739D;strokeWidth=2;fontSize=24;startArrow=none;startFill=0;endArrow=none;endFill=0;" edge="1" parent="1" source="2pKGgdyKarqp1mi2ff9K-278" target="2pKGgdyKarqp1mi2ff9K-246">
          <mxGeometry relative="1" as="geometry" />
        </mxCell>
        <mxCell id="2pKGgdyKarqp1mi2ff9K-275" style="edgeStyle=none;rounded=0;orthogonalLoop=1;jettySize=auto;html=1;exitX=0;exitY=0.5;exitDx=0;exitDy=0;entryX=1;entryY=0.5;entryDx=0;entryDy=0;strokeColor=#B5739D;strokeWidth=2;fontSize=24;startArrow=none;startFill=0;endArrow=none;endFill=0;" edge="1" parent="1" source="2pKGgdyKarqp1mi2ff9K-278" target="2pKGgdyKarqp1mi2ff9K-257">
          <mxGeometry relative="1" as="geometry" />
        </mxCell>
        <mxCell id="2pKGgdyKarqp1mi2ff9K-276" style="edgeStyle=none;rounded=0;orthogonalLoop=1;jettySize=auto;html=1;exitX=1;exitY=0.5;exitDx=0;exitDy=0;entryX=0;entryY=1;entryDx=0;entryDy=0;strokeColor=#B5739D;strokeWidth=2;fontSize=24;startArrow=none;startFill=0;endArrow=none;endFill=0;" edge="1" parent="1" source="2pKGgdyKarqp1mi2ff9K-278" target="2pKGgdyKarqp1mi2ff9K-279">
          <mxGeometry relative="1" as="geometry" />
        </mxCell>
        <mxCell id="2pKGgdyKarqp1mi2ff9K-277" style="edgeStyle=none;rounded=0;orthogonalLoop=1;jettySize=auto;html=1;exitX=1;exitY=0.5;exitDx=0;exitDy=0;entryX=0;entryY=1;entryDx=0;entryDy=0;strokeColor=#B5739D;strokeWidth=2;fontSize=24;startArrow=none;startFill=0;endArrow=none;endFill=0;" edge="1" parent="1" source="2pKGgdyKarqp1mi2ff9K-278" target="2pKGgdyKarqp1mi2ff9K-281">
          <mxGeometry relative="1" as="geometry" />
        </mxCell>
        <mxCell id="2pKGgdyKarqp1mi2ff9K-289" style="edgeStyle=none;rounded=0;orthogonalLoop=1;jettySize=auto;html=1;exitX=1;exitY=0.5;exitDx=0;exitDy=0;entryX=0;entryY=1;entryDx=0;entryDy=0;strokeColor=#B5739D;strokeWidth=2;fontSize=24;startArrow=none;startFill=0;endArrow=none;endFill=0;" edge="1" parent="1" source="2pKGgdyKarqp1mi2ff9K-278" target="2pKGgdyKarqp1mi2ff9K-282">
          <mxGeometry relative="1" as="geometry" />
        </mxCell>
        <mxCell id="2pKGgdyKarqp1mi2ff9K-278" value="" style="ellipse;whiteSpace=wrap;html=1;aspect=fixed;strokeWidth=2;fontSize=24;fillColor=#F19C99;strokeColor=none;" vertex="1" parent="1">
          <mxGeometry x="1422.5" y="768" width="30" height="30" as="geometry" />
        </mxCell>
        <mxCell id="2pKGgdyKarqp1mi2ff9K-279" value="" style="ellipse;whiteSpace=wrap;html=1;aspect=fixed;strokeWidth=2;fontSize=24;fillColor=#F19C99;strokeColor=none;" vertex="1" parent="1">
          <mxGeometry x="1492.5" y="623" width="30" height="30" as="geometry" />
        </mxCell>
        <mxCell id="2pKGgdyKarqp1mi2ff9K-280" style="edgeStyle=none;rounded=0;orthogonalLoop=1;jettySize=auto;html=1;exitX=0;exitY=0.5;exitDx=0;exitDy=0;entryX=1;entryY=0.5;entryDx=0;entryDy=0;strokeColor=#B5739D;strokeWidth=2;fontSize=24;startArrow=none;startFill=0;endArrow=none;endFill=0;" edge="1" parent="1" source="2pKGgdyKarqp1mi2ff9K-281" target="2pKGgdyKarqp1mi2ff9K-273">
          <mxGeometry relative="1" as="geometry" />
        </mxCell>
        <mxCell id="2pKGgdyKarqp1mi2ff9K-281" value="" style="ellipse;whiteSpace=wrap;html=1;aspect=fixed;strokeWidth=2;fontSize=24;fillColor=#F19C99;strokeColor=none;" vertex="1" parent="1">
          <mxGeometry x="1492.5" y="738" width="30" height="30" as="geometry" />
        </mxCell>
        <mxCell id="2pKGgdyKarqp1mi2ff9K-283" style="edgeStyle=none;rounded=0;orthogonalLoop=1;jettySize=auto;html=1;exitX=0;exitY=0;exitDx=0;exitDy=0;entryX=1;entryY=0.5;entryDx=0;entryDy=0;strokeColor=#B5739D;strokeWidth=2;fontSize=24;startArrow=none;startFill=0;endArrow=none;endFill=0;" edge="1" parent="1" source="2pKGgdyKarqp1mi2ff9K-282" target="2pKGgdyKarqp1mi2ff9K-265">
          <mxGeometry relative="1" as="geometry" />
        </mxCell>
        <mxCell id="2pKGgdyKarqp1mi2ff9K-282" value="" style="ellipse;whiteSpace=wrap;html=1;aspect=fixed;strokeWidth=2;fontSize=24;fillColor=#F19C99;strokeColor=none;" vertex="1" parent="1">
          <mxGeometry x="1492.5" y="683" width="30" height="30" as="geometry" />
        </mxCell>
        <mxCell id="2pKGgdyKarqp1mi2ff9K-290" value="" style="shape=flexArrow;endArrow=classic;html=1;rounded=0;strokeColor=none;strokeWidth=2;fontSize=24;fillColor=#F19C99;width=13.6;endSize=6.08;" edge="1" parent="1">
          <mxGeometry width="50" height="50" relative="1" as="geometry">
            <mxPoint x="1440" y="548" as="sourcePoint" />
            <mxPoint x="1440" y="438" as="targetPoint" />
            <Array as="points">
              <mxPoint x="1460" y="498" />
            </Array>
          </mxGeometry>
        </mxCell>
        <mxCell id="2pKGgdyKarqp1mi2ff9K-291" value="&lt;font style=&quot;font-size: 20px;&quot;&gt;Knowledge&lt;/font&gt;" style="edgeLabel;html=1;align=center;verticalAlign=middle;resizable=0;points=[];fontSize=24;labelBackgroundColor=none;" vertex="1" connectable="0" parent="2pKGgdyKarqp1mi2ff9K-290">
          <mxGeometry x="0.6732" y="-2" relative="1" as="geometry">
            <mxPoint x="76" y="53" as="offset" />
          </mxGeometry>
        </mxCell>
        <mxCell id="2pKGgdyKarqp1mi2ff9K-292" value="" style="endArrow=classic;html=1;rounded=0;strokeColor=#B5739D;strokeWidth=8;fontSize=20;fillColor=#F19C99;" edge="1" parent="1">
          <mxGeometry width="50" height="50" relative="1" as="geometry">
            <mxPoint x="320" y="499" as="sourcePoint" />
            <mxPoint x="380" y="499" as="targetPoint" />
          </mxGeometry>
        </mxCell>
        <mxCell id="2pKGgdyKarqp1mi2ff9K-295" value="" style="endArrow=classic;html=1;rounded=0;strokeColor=#B5739D;strokeWidth=8;fontSize=20;fillColor=#F19C99;" edge="1" parent="1">
          <mxGeometry width="50" height="50" relative="1" as="geometry">
            <mxPoint x="750" y="503" as="sourcePoint" />
            <mxPoint x="810" y="503" as="targetPoint" />
          </mxGeometry>
        </mxCell>
        <mxCell id="2pKGgdyKarqp1mi2ff9K-296" value="" style="endArrow=classic;html=1;rounded=0;strokeColor=#B5739D;strokeWidth=8;fontSize=20;fillColor=#F19C99;" edge="1" parent="1">
          <mxGeometry width="50" height="50" relative="1" as="geometry">
            <mxPoint x="1180" y="502" as="sourcePoint" />
            <mxPoint x="1240" y="502" as="targetPoint" />
          </mxGeometry>
        </mxCell>
        <mxCell id="2pKGgdyKarqp1mi2ff9K-297" value="" style="endArrow=classic;html=1;rounded=0;strokeColor=#B5739D;strokeWidth=8;fontSize=20;fillColor=#F19C99;" edge="1" parent="1">
          <mxGeometry width="50" height="50" relative="1" as="geometry">
            <mxPoint x="1620" y="512" as="sourcePoint" />
            <mxPoint x="1680" y="512" as="targetPoint" />
          </mxGeometry>
        </mxCell>
        <mxCell id="2pKGgdyKarqp1mi2ff9K-298" value="" style="shape=image;verticalLabelPosition=bottom;verticalAlign=top;imageAspect=0;aspect=fixed;image=data:image/svg+xml,PHN2ZyBoZWlnaHQ9IjIwMCIgd2lkdGg9IjIwMCIgeG1sbnM6eGxpbms9Imh0dHA6Ly93d3cudzMub3JnLzE5OTkveGxpbmsiIHhtbG5zPSJodHRwOi8vd3d3LnczLm9yZy8yMDAwL3N2ZyIgdmVyc2lvbj0iMS4xIiB2aWV3Qm94PSIwIDAgMTAyNCAxMDI0IiBjbGFzcz0iaWNvbiI+PHBhdGggZmlsbD0iIzcwNzA3MCIgZD0iTTQ2Ny4yIDE5MC40YTEwNy4yIDEwNy4yIDAgMSAxIDAgMjE0LjQgMTA3LjIgMTA3LjIgMCAwIDEgMC0yMTQuNG0wLTQ5LjZjLTg2LjQgMC0xNTUuMiA2OC44LTE1NS4yIDE1NS4yczY4LjggMTU1LjIgMTU1LjIgMTU1LjIgMTU1LjItNjguOCAxNTUuMi0xNTUuMi03MC40LTE1NS4yLTE1NS4yLTE1NS4yek0yMzguNCA5MDcuMmMtMTIuOCAwLTI0LTExLjItMjQtMjRWNjk2YzAtMTAwLjggODMuMi0xODQgMTg0LTE4NGgxNDAuOGMxMi44IDAgMjQgMTEuMiAyNCAyNHMtMTEuMiAyNC0yNCAyNGgtMTQwLjhjLTc1LjIgMC0xMzYgNjAuOC0xMzYgMTM2djE4Ny4yYzAgMTIuOC05LjYgMjQtMjQgMjR6TTc4NS42IDgyNS42Yy0xMi44IDAtMjQtMTEuMi0yNC0yNFY1MzQuNGMwLTEyLjggMTEuMi0yNCAyNC0yNHMyNCAxMS4yIDI0IDI0VjgwMGMwIDE0LjQtMTEuMiAyNS42LTI0IDI1LjZ6Ii8+PHBhdGggZmlsbD0iIzcwNzA3MCIgZD0iTTY1MS4yIDgyNS42SDM2MS42Yy0xMi44IDAtMjQtMTEuMi0yNC0yNHMxMS4yLTI0IDI0LTI0aDI4OS42YzkuNiAwIDE5LjItMTEuMiAxOS4yLTI0VjUzOS4yYzAtMTIuOCAxMS4yLTI0IDI0LTI0czI0IDExLjIgMjQgMjRWNzUyYy0xLjYgNDAtMzAuNCA3My42LTY3LjIgNzMuNnoiLz48cGF0aCBmaWxsPSIjNzA3MDcwIiBkPSJNMzYwIDgyNGMtNi40IDAtMTIuOC0xLjYtMTcuNi02LjQtOS42LTkuNi05LjYtMjQgMC0zMy42bDc4LjQtNzguNGM5LjYtOS42IDI0LTkuNiAzMy42IDBzOS42IDI0IDAgMzMuNkwzNzYgODE2Yy00LjggNC44LTkuNiA4LTE2IDh6Ii8+PHBhdGggZmlsbD0iIzcwNzA3MCIgZD0iTTQzOC40IDkwMi40Yy02LjQgMC0xMi44LTEuNi0xNy42LTYuNGwtNzguNC04MGMtOS42LTkuNi05LjYtMjQgMC0zMy42czI0LTkuNiAzMy42IDBsNzguNCA3OC40YzkuNiA5LjYgOS42IDI0IDAgMzMuNi0zLjIgNC44LTkuNiA4LTE2IDh6Ii8+PC9zdmc+;dashed=1;labelBackgroundColor=none;strokeColor=#B5739D;strokeWidth=2;fontSize=20;fillColor=#F19C99;" vertex="1" parent="1">
          <mxGeometry x="430" y="515.5" width="114" height="114" as="geometry" />
        </mxCell>
      </root>
    </mxGraphModel>
  </diagram>
</mxfile>
